<?xml version="1.0" encoding="UTF-8" standalone="no"?><svg xmlns="http://www.w3.org/2000/svg" xmlns:xlink="http://www.w3.org/1999/xlink" contentScriptType="application/ecmascript" contentStyleType="text/css" height="505px" preserveAspectRatio="none" style="width:281px;height:505px;" version="1.1" viewBox="0 0 281 505" width="281px" zoomAndPan="magnify"><defs><filter height="300%" id="frpgqonyd3g7u" width="300%" x="-1" y="-1"><feGaussianBlur result="blurOut" stdDeviation="2.0"/><feColorMatrix in="blurOut" result="blurOut2" type="matrix" values="0 0 0 0 0 0 0 0 0 0 0 0 0 0 0 0 0 0 .4 0"/><feOffset dx="4.0" dy="4.0" in="blurOut2" result="blurOut3"/><feBlend in="SourceGraphic" in2="blurOut3" mode="normal"/></filter></defs><g><text fill="#888888" font-family="sans-serif" font-size="10" lengthAdjust="spacingAndGlyphs" textLength="29" x="240" y="9.2822">Fig. 4.</text><!--MD5=[d7185908a6772df83b4264cc3b1e73e4]
class IGrid--><rect fill="#FEFECE" filter="url(#frpgqonyd3g7u)" height="186.7891" id="IGrid" style="stroke: #A80036; stroke-width: 1.5;" width="245" x="6" y="111.6406"/><ellipse cx="108.25" cy="130.6094" fill="#B4A7E5" rx="11" ry="11" style="stroke: #A80036; stroke-width: 1.0;"/><path d="M104.1719,126.375 L104.1719,124.2188 L111.5625,124.2188 L111.5625,126.375 L109.0938,126.375 L109.0938,134.4531 L111.5625,134.4531 L111.5625,136.6094 L104.1719,136.6094 L104.1719,134.4531 L106.6406,134.4531 L106.6406,126.375 L104.1719,126.375 Z "/><text fill="#000000" font-family="sans-serif" font-size="12" font-style="italic" lengthAdjust="spacingAndGlyphs" textLength="36" x="126.75" y="127.7793">«env»</text><text fill="#000000" font-family="sans-serif" font-size="12" font-style="italic" lengthAdjust="spacingAndGlyphs" textLength="29" x="130.25" y="141.748">IGrid</text><line style="stroke: #A80036; stroke-width: 1.5;" x1="7" x2="250" y1="149.5781" y2="149.5781"/><ellipse cx="17" cy="160.5781" fill="#84BE84" rx="3" ry="3" style="stroke: #038048; stroke-width: 1.0;"/><text fill="#000000" font-family="sans-serif" font-size="11" font-style="italic" lengthAdjust="spacingAndGlyphs" textLength="85" x="26" y="163.7886">bool iInitialize()</text><ellipse cx="17" cy="173.3828" fill="#84BE84" rx="3" ry="3" style="stroke: #038048; stroke-width: 1.0;"/><text fill="#000000" font-family="sans-serif" font-size="11" font-style="italic" lengthAdjust="spacingAndGlyphs" textLength="80" x="26" y="176.5933">int iGetSizeX()</text><ellipse cx="17" cy="186.1875" fill="#84BE84" rx="3" ry="3" style="stroke: #038048; stroke-width: 1.0;"/><text fill="#000000" font-family="sans-serif" font-size="11" font-style="italic" lengthAdjust="spacingAndGlyphs" textLength="79" x="26" y="189.3979">int iGetSizeY()</text><ellipse cx="17" cy="198.9922" fill="#84BE84" rx="3" ry="3" style="stroke: #038048; stroke-width: 1.0;"/><text fill="#000000" font-family="sans-serif" font-size="11" font-style="italic" lengthAdjust="spacingAndGlyphs" textLength="116" x="26" y="202.2026">int iGetResolutionX()</text><ellipse cx="17" cy="211.7969" fill="#84BE84" rx="3" ry="3" style="stroke: #038048; stroke-width: 1.0;"/><text fill="#000000" font-family="sans-serif" font-size="11" font-style="italic" lengthAdjust="spacingAndGlyphs" textLength="115" x="26" y="215.0073">int iGetResolutionY()</text><ellipse cx="17" cy="224.6016" fill="#84BE84" rx="3" ry="3" style="stroke: #038048; stroke-width: 1.0;"/><text fill="#000000" font-family="sans-serif" font-size="11" font-style="italic" lengthAdjust="spacingAndGlyphs" textLength="134" x="26" y="227.812">int iGetNumberOfCells()</text><ellipse cx="17" cy="237.4063" fill="#84BE84" rx="3" ry="3" style="stroke: #038048; stroke-width: 1.0;"/><text fill="#000000" font-family="sans-serif" font-size="11" font-style="italic" lengthAdjust="spacingAndGlyphs" textLength="195" x="26" y="240.6167">bool iGetCellPosition(CELL, int, int)</text><ellipse cx="17" cy="250.2109" fill="#84BE84" rx="3" ry="3" style="stroke: #038048; stroke-width: 1.0;"/><text fill="#000000" font-family="sans-serif" font-size="11" font-style="italic" lengthAdjust="spacingAndGlyphs" textLength="219" x="26" y="253.4214">bool iGetCellCoordinates(CELL, int, int)</text><ellipse cx="17" cy="263.0156" fill="#84BE84" rx="3" ry="3" style="stroke: #038048; stroke-width: 1.0;"/><text fill="#000000" font-family="sans-serif" font-size="11" font-style="italic" lengthAdjust="spacingAndGlyphs" textLength="196" x="26" y="266.2261">bool iGetCellNumber(int, int, CELL)</text><ellipse cx="17" cy="275.8203" fill="#84BE84" rx="3" ry="3" style="stroke: #038048; stroke-width: 1.0;"/><text fill="#000000" font-family="sans-serif" font-size="11" font-style="italic" lengthAdjust="spacingAndGlyphs" textLength="215" x="26" y="279.0308">bool iGetContainingCell (int, int, CELL)</text><ellipse cx="17" cy="288.625" fill="#84BE84" rx="3" ry="3" style="stroke: #038048; stroke-width: 1.0;"/><text fill="#000000" font-family="sans-serif" font-size="11" font-style="italic" lengthAdjust="spacingAndGlyphs" textLength="175" x="26" y="291.8354">bool iIsWithinCell(int, int, CELL)</text><!--MD5=[1f24f7b92150e3316908f7910ce81742]
class Grid--><rect fill="#FEFECE" filter="url(#frpgqonyd3g7u)" height="37.9375" id="Grid" style="stroke: #A80036; stroke-width: 1.5;" width="64" x="54.5" y="358.6406"/><ellipse cx="69.5" cy="377.6094" fill="#ADD1B2" rx="11" ry="11" style="stroke: #A80036; stroke-width: 1.0;"/><path d="M72.4688,383.25 Q71.8906,383.5469 71.25,383.6875 Q70.6094,383.8438 69.9063,383.8438 Q67.4063,383.8438 66.0781,382.2031 Q64.7656,380.5469 64.7656,377.4219 Q64.7656,374.2969 66.0781,372.6406 Q67.4063,370.9844 69.9063,370.9844 Q70.6094,370.9844 71.25,371.1406 Q71.9063,371.2969 72.4688,371.5938 L72.4688,374.3125 Q71.8438,373.7344 71.25,373.4688 Q70.6563,373.1875 70.0313,373.1875 Q68.6875,373.1875 68,374.2656 Q67.3125,375.3281 67.3125,377.4219 Q67.3125,379.5156 68,380.5938 Q68.6875,381.6563 70.0313,381.6563 Q70.6563,381.6563 71.25,381.3906 Q71.8438,381.1094 72.4688,380.5313 L72.4688,383.25 Z "/><text fill="#000000" font-family="sans-serif" font-size="12" font-style="italic" lengthAdjust="spacingAndGlyphs" textLength="36" x="81.5" y="374.7793">«env»</text><text fill="#000000" font-family="sans-serif" font-size="12" lengthAdjust="spacingAndGlyphs" textLength="25" x="87" y="388.748">Grid</text><!--MD5=[a96d6fc3c439571aefcf3c6c47725a6e]
class CELL--><rect fill="#FEFECE" filter="url(#frpgqonyd3g7u)" height="37.9375" id="CELL" style="stroke: #A80036; stroke-width: 1.5;" width="64" x="96.5" y="456.6406"/><ellipse cx="111.5" cy="475.6094" fill="#ADD1B2" rx="11" ry="11" style="stroke: #A80036; stroke-width: 1.0;"/><path d="M114.4688,481.25 Q113.8906,481.5469 113.25,481.6875 Q112.6094,481.8438 111.9063,481.8438 Q109.4063,481.8438 108.0781,480.2031 Q106.7656,478.5469 106.7656,475.4219 Q106.7656,472.2969 108.0781,470.6406 Q109.4063,468.9844 111.9063,468.9844 Q112.6094,468.9844 113.25,469.1406 Q113.9063,469.2969 114.4688,469.5938 L114.4688,472.3125 Q113.8438,471.7344 113.25,471.4688 Q112.6563,471.1875 112.0313,471.1875 Q110.6875,471.1875 110,472.2656 Q109.3125,473.3281 109.3125,475.4219 Q109.3125,477.5156 110,478.5938 Q110.6875,479.6563 112.0313,479.6563 Q112.6563,479.6563 113.25,479.3906 Q113.8438,479.1094 114.4688,478.5313 L114.4688,481.25 Z "/><text fill="#000000" font-family="sans-serif" font-size="12" font-style="italic" lengthAdjust="spacingAndGlyphs" textLength="36" x="123.5" y="472.7793">«env»</text><text fill="#000000" font-family="sans-serif" font-size="12" lengthAdjust="spacingAndGlyphs" textLength="28" x="127.5" y="486.748">CELL</text><!--MD5=[335f4d9be48430461c68bf6d6fdba145]
class App--><rect fill="#FEFECE" filter="url(#frpgqonyd3g7u)" height="32" id="App" style="stroke: #A80036; stroke-width: 1.5;" width="56" x="100.5" y="19.6406"/><ellipse cx="115.5" cy="35.6406" fill="#ADD1B2" rx="11" ry="11" style="stroke: #A80036; stroke-width: 1.0;"/><path d="M118.4688,41.2813 Q117.8906,41.5781 117.25,41.7188 Q116.6094,41.875 115.9063,41.875 Q113.4063,41.875 112.0781,40.2344 Q110.7656,38.5781 110.7656,35.4531 Q110.7656,32.3281 112.0781,30.6719 Q113.4063,29.0156 115.9063,29.0156 Q116.6094,29.0156 117.25,29.1719 Q117.9063,29.3281 118.4688,29.625 L118.4688,32.3438 Q117.8438,31.7656 117.25,31.5 Q116.6563,31.2188 116.0313,31.2188 Q114.6875,31.2188 114,32.2969 Q113.3125,33.3594 113.3125,35.4531 Q113.3125,37.5469 114,38.625 Q114.6875,39.6875 116.0313,39.6875 Q116.6563,39.6875 117.25,39.4219 Q117.8438,39.1406 118.4688,38.5625 L118.4688,41.2813 Z "/><text fill="#000000" font-family="sans-serif" font-size="12" lengthAdjust="spacingAndGlyphs" textLength="24" x="129.5" y="39.7949">App</text><!--MD5=[b6573cc0df49de0d146a240b64d5a148]
reverse link IGrid to Grid--><path d="M100.87,318.3106 C97.04,333.8406 93.55,348.0406 90.96,358.5406 " fill="none" id="IGrid&lt;-Grid" style="stroke: #A80036; stroke-width: 1.0; stroke-dasharray: 7.0,7.0;"/><polygon fill="none" points="94.08,316.6206,105.66,298.8706,107.67,319.9706,94.08,316.6206" style="stroke: #A80036; stroke-width: 1.0;"/><!--MD5=[a37b14a58caa570d2aea9b4a67f87c64]
link IGrid to CELL--><path d="M135.85,298.6906 C137.4,329.8206 138.13,364.7406 136.5,396.6406 C135.56,415.0806 133.37,435.8806 131.52,451.3606 " fill="none" id="IGrid-&gt;CELL" style="stroke: #A80036; stroke-width: 1.0; stroke-dasharray: 7.0,7.0;"/><polygon fill="#A80036" points="130.9,456.4006,135.9764,447.9609,131.5149,451.4386,128.0372,446.977,130.9,456.4006" style="stroke: #A80036; stroke-width: 1.0;"/><!--MD5=[8c48ca0678a07abf55c7a7d174685988]
link App to IGrid--><path d="M128.5,63.8006 C128.5,63.8006 128.5,86.0306 128.5,98.0706 " fill="none" id="App-IGrid" style="stroke: #A80036; stroke-width: 1.0;"/><polygon fill="#A80036" points="128.5,111.3406,132.5,102.3406,128.5,106.3406,124.5,102.3406,128.5,111.3406" style="stroke: #A80036; stroke-width: 1.0;"/><line style="stroke: #A80036; stroke-width: 1.0;" x1="128.5" x2="128.5" y1="106.3406" y2="98.3406"/><polygon fill="#FFFFFF" points="128.5,51.8006,124.5,57.8006,128.5,63.8006,132.5,57.8006,128.5,51.8006" style="stroke: #A80036; stroke-width: 1.0;"/><!--MD5=[20c651f8df7a878b02c59d8c52035585]
link Grid to CELL--><path d="M99.2112,407.6939 C99.2112,407.6939 110.31,433.0706 115.26,444.3806 " fill="none" id="Grid-CELL" style="stroke: #A80036; stroke-width: 1.0;"/><polygon fill="#A80036" points="120.49,456.3406,120.546,446.4919,118.4853,451.7601,113.2172,449.6994,120.49,456.3406" style="stroke: #A80036; stroke-width: 1.0;"/><line style="stroke: #A80036; stroke-width: 1.0;" x1="118.4853" x2="115.28" y1="451.7601" y2="444.4256"/><polygon fill="#A80036" points="94.4,396.7006,93.1412,403.801,99.2112,407.6939,100.47,400.5935,94.4,396.7006" style="stroke: #A80036; stroke-width: 1.0;"/><!--MD5=[cce65664a9298727324d65f07edaf668]
@startuml
header Fig. 4.
interface IGrid <<env>>
{
	+ {abstract} bool iInitialize()
	+ {abstract} int iGetSizeX()
	+ {abstract} int iGetSizeY()
	+ {abstract} int iGetResolutionX()
	+ {abstract} int iGetResolutionY()
	+ {abstract} int iGetNumberOfCells()
	+ {abstract} bool iGetCellPosition(CELL, int, int)
	+ {abstract} bool iGetCellCoordinates(CELL, int, int)
	+ {abstract} bool iGetCellNumber(int, int, CELL)
	+ {abstract} bool iGetContainingCell (int, int, CELL)
	+ {abstract} bool iIsWithinCell(int, int, CELL)
}

class Grid <<env>> implements IGrid
class CELL <<env>>

IGrid ..> CELL
App o- -> IGrid
Grid *- -> CELL
hide empty members
@enduml

PlantUML version 1.2020.02(Sun Mar 01 18:22:07 CST 2020)
(GPL source distribution)
Java Runtime: OpenJDK Runtime Environment
JVM: OpenJDK 64-Bit Server VM
Java Version: 11.0.29+7
Operating System: Linux
Default Encoding: UTF-8
Language: en
Country: null
--></g></svg>