<?xml version="1.0" encoding="UTF-8" standalone="no"?><svg xmlns="http://www.w3.org/2000/svg" xmlns:xlink="http://www.w3.org/1999/xlink" contentScriptType="application/ecmascript" contentStyleType="text/css" height="611px" preserveAspectRatio="none" style="width:350px;height:611px;" version="1.1" viewBox="0 0 350 611" width="350px" zoomAndPan="magnify"><defs><filter height="300%" id="f1oy00uvl9ukpa" width="300%" x="-1" y="-1"><feGaussianBlur result="blurOut" stdDeviation="2.0"/><feColorMatrix in="blurOut" result="blurOut2" type="matrix" values="0 0 0 0 0 0 0 0 0 0 0 0 0 0 0 0 0 0 .4 0"/><feOffset dx="4.0" dy="4.0" in="blurOut2" result="blurOut3"/><feBlend in="SourceGraphic" in2="blurOut3" mode="normal"/></filter></defs><g><text fill="#888888" font-family="sans-serif" font-size="10" lengthAdjust="spacingAndGlyphs" textLength="29" x="309" y="9.2822">Fig. 3.</text><!--MD5=[d7185908a6772df83b4264cc3b1e73e4]
class IGrid--><rect fill="#FEFECE" filter="url(#f1oy00uvl9ukpa)" height="238.0078" id="IGrid" style="stroke: #A80036; stroke-width: 1.5;" width="245" x="6" y="111.6406"/><ellipse cx="108.25" cy="130.6094" fill="#B4A7E5" rx="11" ry="11" style="stroke: #A80036; stroke-width: 1.0;"/><path d="M104.1719,126.375 L104.1719,124.2188 L111.5625,124.2188 L111.5625,126.375 L109.0938,126.375 L109.0938,134.4531 L111.5625,134.4531 L111.5625,136.6094 L104.1719,136.6094 L104.1719,134.4531 L106.6406,134.4531 L106.6406,126.375 L104.1719,126.375 Z "/><text fill="#000000" font-family="sans-serif" font-size="12" font-style="italic" lengthAdjust="spacingAndGlyphs" textLength="36" x="126.75" y="127.7793">«env»</text><text fill="#000000" font-family="sans-serif" font-size="12" font-style="italic" lengthAdjust="spacingAndGlyphs" textLength="29" x="130.25" y="141.748">IGrid</text><line style="stroke: #A80036; stroke-width: 1.5;" x1="7" x2="250" y1="149.5781" y2="149.5781"/><ellipse cx="17" cy="160.5781" fill="#84BE84" rx="3" ry="3" style="stroke: #038048; stroke-width: 1.0;"/><text fill="#000000" font-family="sans-serif" font-size="11" font-style="italic" lengthAdjust="spacingAndGlyphs" textLength="85" x="26" y="163.7886">bool iInitialize()</text><ellipse cx="17" cy="173.3828" fill="#84BE84" rx="3" ry="3" style="stroke: #038048; stroke-width: 1.0;"/><text fill="#000000" font-family="sans-serif" font-size="11" font-style="italic" lengthAdjust="spacingAndGlyphs" textLength="80" x="26" y="176.5933">int iGetSizeX()</text><ellipse cx="17" cy="186.1875" fill="#84BE84" rx="3" ry="3" style="stroke: #038048; stroke-width: 1.0;"/><text fill="#000000" font-family="sans-serif" font-size="11" font-style="italic" lengthAdjust="spacingAndGlyphs" textLength="79" x="26" y="189.3979">int iGetSizeY()</text><ellipse cx="17" cy="198.9922" fill="#84BE84" rx="3" ry="3" style="stroke: #038048; stroke-width: 1.0;"/><text fill="#000000" font-family="sans-serif" font-size="11" font-style="italic" lengthAdjust="spacingAndGlyphs" textLength="116" x="26" y="202.2026">int iGetResolutionX()</text><ellipse cx="17" cy="211.7969" fill="#84BE84" rx="3" ry="3" style="stroke: #038048; stroke-width: 1.0;"/><text fill="#000000" font-family="sans-serif" font-size="11" font-style="italic" lengthAdjust="spacingAndGlyphs" textLength="115" x="26" y="215.0073">int iGetResolutionY()</text><ellipse cx="17" cy="224.6016" fill="#84BE84" rx="3" ry="3" style="stroke: #038048; stroke-width: 1.0;"/><text fill="#000000" font-family="sans-serif" font-size="11" font-style="italic" lengthAdjust="spacingAndGlyphs" textLength="134" x="26" y="227.812">int iGetNumberOfCells()</text><ellipse cx="17" cy="237.4063" fill="#84BE84" rx="3" ry="3" style="stroke: #038048; stroke-width: 1.0;"/><text fill="#000000" font-family="sans-serif" font-size="11" font-style="italic" lengthAdjust="spacingAndGlyphs" textLength="195" x="26" y="240.6167">bool iGetCellPosition(CELL, int, int)</text><ellipse cx="17" cy="250.2109" fill="#84BE84" rx="3" ry="3" style="stroke: #038048; stroke-width: 1.0;"/><text fill="#000000" font-family="sans-serif" font-size="11" font-style="italic" lengthAdjust="spacingAndGlyphs" textLength="219" x="26" y="253.4214">bool iGetCellCoordinates(CELL, int, int)</text><ellipse cx="17" cy="263.0156" fill="#84BE84" rx="3" ry="3" style="stroke: #038048; stroke-width: 1.0;"/><text fill="#000000" font-family="sans-serif" font-size="11" font-style="italic" lengthAdjust="spacingAndGlyphs" textLength="196" x="26" y="266.2261">bool iGetCellNumber(int, int, CELL)</text><ellipse cx="17" cy="275.8203" fill="#84BE84" rx="3" ry="3" style="stroke: #038048; stroke-width: 1.0;"/><text fill="#000000" font-family="sans-serif" font-size="11" font-style="italic" lengthAdjust="spacingAndGlyphs" textLength="215" x="26" y="279.0308">bool iGetContainingCell (int, int, CELL)</text><ellipse cx="17" cy="288.625" fill="#84BE84" rx="3" ry="3" style="stroke: #038048; stroke-width: 1.0;"/><text fill="#000000" font-family="sans-serif" font-size="11" font-style="italic" lengthAdjust="spacingAndGlyphs" textLength="175" x="26" y="291.8354">bool iIsWithinCell(int, int, CELL)</text><ellipse cx="17" cy="301.4297" fill="#84BE84" rx="3" ry="3" style="stroke: #038048; stroke-width: 1.0;"/><text fill="#000000" font-family="sans-serif" font-size="11" font-style="italic" lengthAdjust="spacingAndGlyphs" textLength="180" x="26" y="304.6401">void iApplyOnCells(ICellFunctor)</text><ellipse cx="17" cy="314.2344" fill="#84BE84" rx="3" ry="3" style="stroke: #038048; stroke-width: 1.0;"/><text fill="#000000" font-family="sans-serif" font-size="11" font-style="italic" lengthAdjust="spacingAndGlyphs" textLength="137" x="26" y="317.4448">bool iAddObstacle(CELL)</text><ellipse cx="17" cy="327.0391" fill="#84BE84" rx="3" ry="3" style="stroke: #038048; stroke-width: 1.0;"/><text fill="#000000" font-family="sans-serif" font-size="11" font-style="italic" lengthAdjust="spacingAndGlyphs" textLength="162" x="26" y="330.2495">bool iRemoveObstacle(CELL)</text><ellipse cx="17" cy="339.8438" fill="#84BE84" rx="3" ry="3" style="stroke: #038048; stroke-width: 1.0;"/><text fill="#000000" font-family="sans-serif" font-size="11" font-style="italic" lengthAdjust="spacingAndGlyphs" textLength="124" x="26" y="343.0542">bool iIsObstacle(CELL)</text><!--MD5=[1f24f7b92150e3316908f7910ce81742]
class Grid--><rect fill="#FEFECE" filter="url(#f1oy00uvl9ukpa)" height="37.9375" id="Grid" style="stroke: #A80036; stroke-width: 1.5;" width="64" x="11.5" y="420.1406"/><ellipse cx="26.5" cy="439.1094" fill="#ADD1B2" rx="11" ry="11" style="stroke: #A80036; stroke-width: 1.0;"/><path d="M29.4688,444.75 Q28.8906,445.0469 28.25,445.1875 Q27.6094,445.3438 26.9063,445.3438 Q24.4063,445.3438 23.0781,443.7031 Q21.7656,442.0469 21.7656,438.9219 Q21.7656,435.7969 23.0781,434.1406 Q24.4063,432.4844 26.9063,432.4844 Q27.6094,432.4844 28.25,432.6406 Q28.9063,432.7969 29.4688,433.0938 L29.4688,435.8125 Q28.8438,435.2344 28.25,434.9688 Q27.6563,434.6875 27.0313,434.6875 Q25.6875,434.6875 25,435.7656 Q24.3125,436.8281 24.3125,438.9219 Q24.3125,441.0156 25,442.0938 Q25.6875,443.1563 27.0313,443.1563 Q27.6563,443.1563 28.25,442.8906 Q28.8438,442.6094 29.4688,442.0313 L29.4688,444.75 Z "/><text fill="#000000" font-family="sans-serif" font-size="12" font-style="italic" lengthAdjust="spacingAndGlyphs" textLength="36" x="38.5" y="436.2793">«env»</text><text fill="#000000" font-family="sans-serif" font-size="12" lengthAdjust="spacingAndGlyphs" textLength="25" x="44" y="450.248">Grid</text><!--MD5=[a96d6fc3c439571aefcf3c6c47725a6e]
class CELL--><rect fill="#FEFECE" filter="url(#f1oy00uvl9ukpa)" height="71.5469" id="CELL" style="stroke: #A80036; stroke-width: 1.5;" width="85" x="86" y="528.6406"/><ellipse cx="110.45" cy="547.6094" fill="#ADD1B2" rx="11" ry="11" style="stroke: #A80036; stroke-width: 1.0;"/><path d="M113.4188,553.25 Q112.8406,553.5469 112.2,553.6875 Q111.5594,553.8438 110.8563,553.8438 Q108.3563,553.8438 107.0281,552.2031 Q105.7156,550.5469 105.7156,547.4219 Q105.7156,544.2969 107.0281,542.6406 Q108.3563,540.9844 110.8563,540.9844 Q111.5594,540.9844 112.2,541.1406 Q112.8563,541.2969 113.4188,541.5938 L113.4188,544.3125 Q112.7938,543.7344 112.2,543.4688 Q111.6063,543.1875 110.9813,543.1875 Q109.6375,543.1875 108.95,544.2656 Q108.2625,545.3281 108.2625,547.4219 Q108.2625,549.5156 108.95,550.5938 Q109.6375,551.6563 110.9813,551.6563 Q111.6063,551.6563 112.2,551.3906 Q112.7938,551.1094 113.4188,550.5313 L113.4188,553.25 Z "/><text fill="#000000" font-family="sans-serif" font-size="12" font-style="italic" lengthAdjust="spacingAndGlyphs" textLength="36" x="124.55" y="544.7793">«env»</text><text fill="#000000" font-family="sans-serif" font-size="12" lengthAdjust="spacingAndGlyphs" textLength="28" x="128.55" y="558.748">CELL</text><line style="stroke: #A80036; stroke-width: 1.5;" x1="87" x2="170" y1="566.5781" y2="566.5781"/><ellipse cx="97" cy="577.5781" fill="none" rx="3" ry="3" style="stroke: #038048; stroke-width: 1.0;"/><text fill="#000000" font-family="sans-serif" font-size="11" lengthAdjust="spacingAndGlyphs" textLength="28" x="106" y="580.7886">int id</text><ellipse cx="97" cy="590.3828" fill="none" rx="3" ry="3" style="stroke: #038048; stroke-width: 1.0;"/><text fill="#000000" font-family="sans-serif" font-size="11" lengthAdjust="spacingAndGlyphs" textLength="59" x="106" y="593.5933">bool mask</text><!--MD5=[867ba45c4329fa30d64c66f99445c130]
class ICellFunctor--><rect fill="#FEFECE" filter="url(#f1oy00uvl9ukpa)" height="58.7422" id="ICellFunctor" style="stroke: #A80036; stroke-width: 1.5;" width="138" x="181.5" y="409.6406"/><ellipse cx="210.9" cy="428.6094" fill="#B4A7E5" rx="11" ry="11" style="stroke: #A80036; stroke-width: 1.0;"/><path d="M206.8219,424.375 L206.8219,422.2188 L214.2125,422.2188 L214.2125,424.375 L211.7438,424.375 L211.7438,432.4531 L214.2125,432.4531 L214.2125,434.6094 L206.8219,434.6094 L206.8219,432.4531 L209.2906,432.4531 L209.2906,424.375 L206.8219,424.375 Z "/><text fill="#000000" font-family="sans-serif" font-size="12" font-style="italic" lengthAdjust="spacingAndGlyphs" textLength="36" x="247.1" y="425.7793">«env»</text><text fill="#000000" font-family="sans-serif" font-size="12" font-style="italic" lengthAdjust="spacingAndGlyphs" textLength="74" x="228.1" y="439.748">ICellFunctor</text><line style="stroke: #A80036; stroke-width: 1.5;" x1="182.5" x2="318.5" y1="447.5781" y2="447.5781"/><ellipse cx="192.5" cy="458.5781" fill="#84BE84" rx="3" ry="3" style="stroke: #038048; stroke-width: 1.0;"/><text fill="#000000" font-family="sans-serif" font-size="11" font-style="italic" lengthAdjust="spacingAndGlyphs" textLength="112" x="201.5" y="461.7886">void operator(CELL)</text><!--MD5=[335f4d9be48430461c68bf6d6fdba145]
class App--><rect fill="#FEFECE" filter="url(#f1oy00uvl9ukpa)" height="32" id="App" style="stroke: #A80036; stroke-width: 1.5;" width="56" x="100.5" y="19.6406"/><ellipse cx="115.5" cy="35.6406" fill="#ADD1B2" rx="11" ry="11" style="stroke: #A80036; stroke-width: 1.0;"/><path d="M118.4688,41.2813 Q117.8906,41.5781 117.25,41.7188 Q116.6094,41.875 115.9063,41.875 Q113.4063,41.875 112.0781,40.2344 Q110.7656,38.5781 110.7656,35.4531 Q110.7656,32.3281 112.0781,30.6719 Q113.4063,29.0156 115.9063,29.0156 Q116.6094,29.0156 117.25,29.1719 Q117.9063,29.3281 118.4688,29.625 L118.4688,32.3438 Q117.8438,31.7656 117.25,31.5 Q116.6563,31.2188 116.0313,31.2188 Q114.6875,31.2188 114,32.2969 Q113.3125,33.3594 113.3125,35.4531 Q113.3125,37.5469 114,38.625 Q114.6875,39.6875 116.0313,39.6875 Q116.6563,39.6875 117.25,39.4219 Q117.8438,39.1406 118.4688,38.5625 L118.4688,41.2813 Z "/><text fill="#000000" font-family="sans-serif" font-size="12" lengthAdjust="spacingAndGlyphs" textLength="24" x="129.5" y="39.7949">App</text><!--MD5=[b6573cc0df49de0d146a240b64d5a148]
reverse link IGrid to Grid--><path d="M72.19,368.4506 C63.78,388.8806 56.18,407.3406 50.92,420.1206 " fill="none" id="IGrid&lt;-Grid" style="stroke: #A80036; stroke-width: 1.0; stroke-dasharray: 7.0,7.0;"/><polygon fill="none" points="65.83,365.5006,79.92,349.6706,78.78,370.8306,65.83,365.5006" style="stroke: #A80036; stroke-width: 1.0;"/><!--MD5=[74ce34f444e3d62f0e356d8058a10aee]
link ICellFunctor to CELL--><path d="M222.2,468.7806 C205.71,485.4806 184.68,506.7706 166.72,524.9506 " fill="none" id="ICellFunctor-&gt;CELL" style="stroke: #A80036; stroke-width: 1.0; stroke-dasharray: 7.0,7.0;"/><polygon fill="#A80036" points="163.17,528.5406,172.3408,524.9494,166.684,524.9837,166.6498,519.327,163.17,528.5406" style="stroke: #A80036; stroke-width: 1.0;"/><!--MD5=[3f36a6d216a882cfd685d3b33b9af648]
link IGrid to ICellFunctor--><path d="M198.23,349.6706 C210.13,369.8106 221.58,389.1806 230.71,404.6406 " fill="none" id="IGrid-&gt;ICellFunctor" style="stroke: #A80036; stroke-width: 1.0; stroke-dasharray: 7.0,7.0;"/><polygon fill="#A80036" points="233.47,409.3106,232.3319,399.5278,230.9249,405.0068,225.4458,403.5999,233.47,409.3106" style="stroke: #A80036; stroke-width: 1.0;"/><!--MD5=[a37b14a58caa570d2aea9b4a67f87c64]
link IGrid to CELL--><path d="M128.5,350.0906 C128.5,410.7606 128.5,480.6706 128.5,523.5106 " fill="none" id="IGrid-&gt;CELL" style="stroke: #A80036; stroke-width: 1.0; stroke-dasharray: 7.0,7.0;"/><polygon fill="#A80036" points="128.5,528.6006,132.5,519.6006,128.5,523.6006,124.5,519.6006,128.5,528.6006" style="stroke: #A80036; stroke-width: 1.0;"/><!--MD5=[8c48ca0678a07abf55c7a7d174685988]
link App to IGrid--><path d="M128.5,63.7806 C128.5,63.7806 128.5,85.9006 128.5,98.2306 " fill="none" id="App-IGrid" style="stroke: #A80036; stroke-width: 1.0;"/><polygon fill="#A80036" points="128.5,111.3606,132.5,102.3606,128.5,106.3606,124.5,102.3606,128.5,111.3606" style="stroke: #A80036; stroke-width: 1.0;"/><line style="stroke: #A80036; stroke-width: 1.0;" x1="128.5" x2="128.5" y1="106.3606" y2="98.3606"/><polygon fill="#FFFFFF" points="128.5,51.7806,124.5,57.7806,128.5,63.7806,132.5,57.7806,128.5,51.7806" style="stroke: #A80036; stroke-width: 1.0;"/><!--MD5=[20c651f8df7a878b02c59d8c52035585]
link Grid to CELL--><path d="M62.8417,468.2468 C62.8417,468.2468 85.62,501.3406 96.78,517.5506 " fill="none" id="Grid-CELL" style="stroke: #A80036; stroke-width: 1.0;"/><polygon fill="#A80036" points="104.29,528.4606,102.4841,518.7787,101.456,524.3414,95.8933,523.3132,104.29,528.4606" style="stroke: #A80036; stroke-width: 1.0;"/><line style="stroke: #A80036; stroke-width: 1.0;" x1="101.456" x2="96.92" y1="524.3414" y2="517.7506"/><polygon fill="#A80036" points="56.04,458.3606,56.1455,465.571,62.8417,468.2468,62.7362,461.0365,56.04,458.3606" style="stroke: #A80036; stroke-width: 1.0;"/><!--MD5=[e7fecbe647f3102ef00e63bd44e77f64]
@startuml
header Fig. 3.
interface IGrid <<env>>
{
	+ {abstract} bool iInitialize()
	+ {abstract} int iGetSizeX()
	+ {abstract} int iGetSizeY()
	+ {abstract} int iGetResolutionX()
	+ {abstract} int iGetResolutionY()
	+ {abstract} int iGetNumberOfCells()
	+ {abstract} bool iGetCellPosition(CELL, int, int)
	+ {abstract} bool iGetCellCoordinates(CELL, int, int)
	+ {abstract} bool iGetCellNumber(int, int, CELL)
	+ {abstract} bool iGetContainingCell (int, int, CELL)
	+ {abstract} bool iIsWithinCell(int, int, CELL)
	+ {abstract} void iApplyOnCells(ICellFunctor)
	+ {abstract} bool iAddObstacle(CELL)
	+ {abstract} bool iRemoveObstacle(CELL)
	+ {abstract} bool iIsObstacle(CELL)
}
class Grid <<env>> implements IGrid
class CELL <<env>> 
{
    + int id
    + bool mask
}
interface ICellFunctor <<env>>
{
    + {abstract} void operator(CELL)
}
ICellFunctor ..> CELL
IGrid ..> ICellFunctor
IGrid ..> CELL
App o- -> IGrid
Grid *- -> CELL
hide empty members
@enduml

PlantUML version 1.2020.02(Sun Mar 01 18:22:07 CST 2020)
(GPL source distribution)
Java Runtime: OpenJDK Runtime Environment
JVM: OpenJDK 64-Bit Server VM
Java Version: 11.0.29+7
Operating System: Linux
Default Encoding: UTF-8
Language: en
Country: null
--></g></svg>