<?xml version="1.0" encoding="UTF-8" standalone="no"?><svg xmlns="http://www.w3.org/2000/svg" xmlns:xlink="http://www.w3.org/1999/xlink" contentScriptType="application/ecmascript" contentStyleType="text/css" height="673px" preserveAspectRatio="none" style="width:1371px;height:673px;" version="1.1" viewBox="0 0 1371 673" width="1371px" zoomAndPan="magnify"><defs><filter height="300%" id="f1rqlf8bw6yx2j" width="300%" x="-1" y="-1"><feGaussianBlur result="blurOut" stdDeviation="2.0"/><feColorMatrix in="blurOut" result="blurOut2" type="matrix" values="0 0 0 0 0 0 0 0 0 0 0 0 0 0 0 0 0 0 .4 0"/><feOffset dx="4.0" dy="4.0" in="blurOut2" result="blurOut3"/><feBlend in="SourceGraphic" in2="blurOut3" mode="normal"/></filter></defs><g><text fill="#888888" font-family="sans-serif" font-size="10" lengthAdjust="spacingAndGlyphs" textLength="134" x="1225" y="9.2822">Fig. Olist Brazilian Database</text><!--MD5=[b3c0514fa69bffb9c22fb6650bde9461]
class customer--><rect fill="#FEFECE" filter="url(#f1rqlf8bw6yx2j)" height="128.8281" id="customer" style="stroke: #A80036; stroke-width: 1.5;" width="227" x="488" y="533.6406"/><ellipse cx="567.75" cy="549.6406" fill="#ADD1B2" rx="11" ry="11" style="stroke: #A80036; stroke-width: 1.0;"/><path d="M571.8594,555.6406 L564.1406,555.6406 L564.1406,543.25 L571.8594,543.25 L571.8594,545.4063 L566.5938,545.4063 L566.5938,548.0781 L571.3594,548.0781 L571.3594,550.2344 L566.5938,550.2344 L566.5938,553.4844 L571.8594,553.4844 L571.8594,555.6406 Z "/><text fill="#000000" font-family="sans-serif" font-size="12" lengthAdjust="spacingAndGlyphs" textLength="59" x="588.25" y="553.7949">customer</text><line style="stroke: #A80036; stroke-width: 1.5;" x1="489" x2="714" y1="565.6406" y2="565.6406"/><ellipse cx="499" cy="576.6406" fill="#000000" rx="3" ry="3" style="stroke: #000000; stroke-width: 1.0;"/><text fill="#000000" font-family="sans-serif" font-size="11" font-weight="bold" lengthAdjust="spacingAndGlyphs" textLength="106" x="508" y="579.8511">customer_id : str</text><ellipse cx="499" cy="606.25" fill="#000000" rx="3" ry="3" style="stroke: #000000; stroke-width: 1.0;"/><text fill="#000000" font-family="sans-serif" font-size="11" lengthAdjust="spacingAndGlyphs" textLength="201" x="508" y="609.4604">customer_zip_code_prefix : varchar</text><line style="stroke: #A80036; stroke-width: 1.0; stroke-dasharray: 1.0,2.0;" x1="489" x2="586.5" y1="592.8477" y2="592.8477"/><text fill="#000000" font-family="sans-serif" font-size="11" lengthAdjust="spacingAndGlyphs" textLength="30" x="586.5" y="596.1558">fkeys</text><line style="stroke: #A80036; stroke-width: 1.0; stroke-dasharray: 1.0,2.0;" x1="616.5" x2="714" y1="592.8477" y2="592.8477"/><line style="stroke: #A80036; stroke-width: 1.0; stroke-dasharray: 1.0,2.0;" x1="489" x2="714" y1="616.0547" y2="616.0547"/><text fill="#000000" font-family="sans-serif" font-size="11" lengthAdjust="spacingAndGlyphs" textLength="169" x="494" y="630.2651">customer_unique_id : varchar</text><text fill="#000000" font-family="sans-serif" font-size="11" lengthAdjust="spacingAndGlyphs" textLength="134" x="494" y="643.0698">customer_city : varchar</text><text fill="#000000" font-family="sans-serif" font-size="11" lengthAdjust="spacingAndGlyphs" textLength="144" x="494" y="655.8745">customer_state : varchar</text><!--MD5=[5b7477af7ab51a4a22cb1fbdfd67aaf3]
class geolocation--><rect fill="#FEFECE" filter="url(#f1rqlf8bw6yx2j)" height="124.8281" id="geolocation" style="stroke: #A80036; stroke-width: 1.5;" width="185" x="942" y="535.6406"/><ellipse cx="993.25" cy="551.6406" fill="#ADD1B2" rx="11" ry="11" style="stroke: #A80036; stroke-width: 1.0;"/><path d="M997.3594,557.6406 L989.6406,557.6406 L989.6406,545.25 L997.3594,545.25 L997.3594,547.4063 L992.0938,547.4063 L992.0938,550.0781 L996.8594,550.0781 L996.8594,552.2344 L992.0938,552.2344 L992.0938,555.4844 L997.3594,555.4844 L997.3594,557.6406 Z "/><text fill="#000000" font-family="sans-serif" font-size="12" lengthAdjust="spacingAndGlyphs" textLength="74" x="1013.75" y="555.7949">geolocation</text><line style="stroke: #A80036; stroke-width: 1.5;" x1="943" x2="1126" y1="567.6406" y2="567.6406"/><ellipse cx="953" cy="578.6406" fill="#000000" rx="3" ry="3" style="stroke: #000000; stroke-width: 1.0;"/><text fill="#000000" font-family="sans-serif" font-size="11" font-weight="bold" lengthAdjust="spacingAndGlyphs" textLength="159" x="962" y="581.8511">zip_code_prefix : varchar</text><line style="stroke: #A80036; stroke-width: 1.0; stroke-dasharray: 1.0,2.0;" x1="943" x2="1126" y1="588.4453" y2="588.4453"/><text fill="#000000" font-family="sans-serif" font-size="11" lengthAdjust="spacingAndGlyphs" textLength="135" x="948" y="602.6558">geolocation_lat : double</text><text fill="#000000" font-family="sans-serif" font-size="11" lengthAdjust="spacingAndGlyphs" textLength="138" x="948" y="615.4604">geolocation_lng : double</text><text fill="#000000" font-family="sans-serif" font-size="11" lengthAdjust="spacingAndGlyphs" textLength="145" x="948" y="628.2651">geolocation_city : varchar</text><text fill="#000000" font-family="sans-serif" font-size="11" lengthAdjust="spacingAndGlyphs" textLength="155" x="948" y="641.0698">geolocation_state : varchar</text><text fill="#000000" font-family="sans-serif" font-size="11" lengthAdjust="spacingAndGlyphs" textLength="0" x="952" y="653.8745"/><!--MD5=[a5d022e75c0065b9d5401ddae886f23d]
class order--><rect fill="#FEFECE" filter="url(#f1rqlf8bw6yx2j)" height="180.0469" id="order" style="stroke: #A80036; stroke-width: 1.5;" width="265" x="328" y="276.6406"/><ellipse cx="439.25" cy="292.6406" fill="#ADD1B2" rx="11" ry="11" style="stroke: #A80036; stroke-width: 1.0;"/><path d="M443.3594,298.6406 L435.6406,298.6406 L435.6406,286.25 L443.3594,286.25 L443.3594,288.4063 L438.0938,288.4063 L438.0938,291.0781 L442.8594,291.0781 L442.8594,293.2344 L438.0938,293.2344 L438.0938,296.4844 L443.3594,296.4844 L443.3594,298.6406 Z "/><text fill="#000000" font-family="sans-serif" font-size="12" lengthAdjust="spacingAndGlyphs" textLength="34" x="459.75" y="296.7949">order</text><line style="stroke: #A80036; stroke-width: 1.5;" x1="329" x2="592" y1="308.6406" y2="308.6406"/><ellipse cx="339" cy="319.6406" fill="#000000" rx="3" ry="3" style="stroke: #000000; stroke-width: 1.0;"/><text fill="#000000" font-family="sans-serif" font-size="11" font-weight="bold" lengthAdjust="spacingAndGlyphs" textLength="112" x="348" y="322.8511">order_id : varchar</text><ellipse cx="339" cy="349.25" fill="#000000" rx="3" ry="3" style="stroke: #000000; stroke-width: 1.0;"/><text fill="#000000" font-family="sans-serif" font-size="11" lengthAdjust="spacingAndGlyphs" textLength="125" x="348" y="352.4604">customer_id : varchar</text><line style="stroke: #A80036; stroke-width: 1.0; stroke-dasharray: 1.0,2.0;" x1="329" x2="445.5" y1="335.8477" y2="335.8477"/><text fill="#000000" font-family="sans-serif" font-size="11" lengthAdjust="spacingAndGlyphs" textLength="30" x="445.5" y="339.1558">fkeys</text><line style="stroke: #A80036; stroke-width: 1.0; stroke-dasharray: 1.0,2.0;" x1="475.5" x2="592" y1="335.8477" y2="335.8477"/><line style="stroke: #A80036; stroke-width: 1.0; stroke-dasharray: 1.0,2.0;" x1="329" x2="592" y1="359.0547" y2="359.0547"/><text fill="#000000" font-family="sans-serif" font-size="11" lengthAdjust="spacingAndGlyphs" textLength="128" x="334" y="373.2651">order_status : varchar</text><text fill="#000000" font-family="sans-serif" font-size="11" lengthAdjust="spacingAndGlyphs" textLength="230" x="334" y="386.0698">order_purchase_timestamp : timestamp</text><text fill="#000000" font-family="sans-serif" font-size="11" lengthAdjust="spacingAndGlyphs" textLength="180" x="334" y="398.8745">order_approved_at : timestamp</text><text fill="#000000" font-family="sans-serif" font-size="11" lengthAdjust="spacingAndGlyphs" textLength="237" x="334" y="411.6792">order_delivered_carrier_date : timestamp</text><text fill="#000000" font-family="sans-serif" font-size="11" lengthAdjust="spacingAndGlyphs" textLength="253" x="334" y="424.4839">order_delivered_customer_date : timestamp</text><text fill="#000000" font-family="sans-serif" font-size="11" lengthAdjust="spacingAndGlyphs" textLength="248" x="334" y="437.2886">order_estimated_delivery_date : timestamp</text><text fill="#000000" font-family="sans-serif" font-size="11" lengthAdjust="spacingAndGlyphs" textLength="0" x="338" y="450.0933"/><!--MD5=[0466a722b51395099b10b548ac73627c]
class order_payment--><rect fill="#FEFECE" filter="url(#f1rqlf8bw6yx2j)" height="141.6328" id="order_payment" style="stroke: #A80036; stroke-width: 1.5;" width="192" x="364.5" y="38.6406"/><ellipse cx="409.25" cy="54.6406" fill="#ADD1B2" rx="11" ry="11" style="stroke: #A80036; stroke-width: 1.0;"/><path d="M413.3594,60.6406 L405.6406,60.6406 L405.6406,48.25 L413.3594,48.25 L413.3594,50.4063 L408.0938,50.4063 L408.0938,53.0781 L412.8594,53.0781 L412.8594,55.2344 L408.0938,55.2344 L408.0938,58.4844 L413.3594,58.4844 L413.3594,60.6406 Z "/><text fill="#000000" font-family="sans-serif" font-size="12" lengthAdjust="spacingAndGlyphs" textLength="94" x="429.75" y="58.7949">order_payment</text><line style="stroke: #A80036; stroke-width: 1.5;" x1="365.5" x2="555.5" y1="70.6406" y2="70.6406"/><ellipse cx="375.5" cy="98.4453" fill="#000000" rx="3" ry="3" style="stroke: #000000; stroke-width: 1.0;"/><text fill="#000000" font-family="sans-serif" font-size="11" lengthAdjust="spacingAndGlyphs" textLength="102" x="384.5" y="101.6558">order_id : varchar</text><line style="stroke: #A80036; stroke-width: 1.0; stroke-dasharray: 1.0,2.0;" x1="365.5" x2="445.5" y1="85.043" y2="85.043"/><text fill="#000000" font-family="sans-serif" font-size="11" lengthAdjust="spacingAndGlyphs" textLength="30" x="445.5" y="88.3511">fkeys</text><line style="stroke: #A80036; stroke-width: 1.0; stroke-dasharray: 1.0,2.0;" x1="475.5" x2="555.5" y1="85.043" y2="85.043"/><line style="stroke: #A80036; stroke-width: 1.0; stroke-dasharray: 1.0,2.0;" x1="365.5" x2="555.5" y1="108.25" y2="108.25"/><text fill="#000000" font-family="sans-serif" font-size="11" lengthAdjust="spacingAndGlyphs" textLength="141" x="370.5" y="122.4604">order_payment : varchar</text><text fill="#000000" font-family="sans-serif" font-size="11" lengthAdjust="spacingAndGlyphs" textLength="166" x="370.5" y="135.2651">payment_sequential : integer</text><text fill="#000000" font-family="sans-serif" font-size="11" lengthAdjust="spacingAndGlyphs" textLength="134" x="370.5" y="148.0698">payment_type : varchar</text><text fill="#000000" font-family="sans-serif" font-size="11" lengthAdjust="spacingAndGlyphs" textLength="180" x="370.5" y="160.8745">payment_installments : varchar</text><text fill="#000000" font-family="sans-serif" font-size="11" lengthAdjust="spacingAndGlyphs" textLength="135" x="370.5" y="173.6792">payment_value : double</text><!--MD5=[9ec793ae04bb35299711a96a5bca6ac5]
class seller--><rect fill="#FEFECE" filter="url(#f1rqlf8bw6yx2j)" height="116.8281" id="seller" style="stroke: #A80036; stroke-width: 1.5;" width="205" x="956" y="308.1406"/><ellipse cx="1037.25" cy="324.1406" fill="#ADD1B2" rx="11" ry="11" style="stroke: #A80036; stroke-width: 1.0;"/><path d="M1041.3594,330.1406 L1033.6406,330.1406 L1033.6406,317.75 L1041.3594,317.75 L1041.3594,319.9063 L1036.0938,319.9063 L1036.0938,322.5781 L1040.8594,322.5781 L1040.8594,324.7344 L1036.0938,324.7344 L1036.0938,327.9844 L1041.3594,327.9844 L1041.3594,330.1406 Z "/><text fill="#000000" font-family="sans-serif" font-size="12" lengthAdjust="spacingAndGlyphs" textLength="34" x="1057.75" y="328.2949">seller</text><line style="stroke: #A80036; stroke-width: 1.5;" x1="957" x2="1160" y1="340.1406" y2="340.1406"/><ellipse cx="967" cy="351.1406" fill="#000000" rx="3" ry="3" style="stroke: #000000; stroke-width: 1.0;"/><text fill="#000000" font-family="sans-serif" font-size="11" font-weight="bold" lengthAdjust="spacingAndGlyphs" textLength="114" x="976" y="354.3511">seller_id : varchar</text><line style="stroke: #A80036; stroke-width: 1.0; stroke-dasharray: 1.0,2.0;" x1="976" x2="976" y1="363.3477" y2="363.3477"/><text fill="#000000" font-family="sans-serif" font-size="11" lengthAdjust="spacingAndGlyphs" textLength="30" x="980" y="366.6558">fkeys</text><line style="stroke: #A80036; stroke-width: 1.0; stroke-dasharray: 1.0,2.0;" x1="1014" x2="1014" y1="363.3477" y2="363.3477"/><ellipse cx="967" cy="376.75" fill="#000000" rx="3" ry="3" style="stroke: #000000; stroke-width: 1.0;"/><text fill="#000000" font-family="sans-serif" font-size="11" lengthAdjust="spacingAndGlyphs" textLength="179" x="976" y="379.9604">seller_zip_code_prefix : varchar</text><ellipse cx="967" cy="389.5547" fill="#000000" rx="3" ry="3" style="stroke: #000000; stroke-width: 1.0;"/><text fill="#000000" font-family="sans-serif" font-size="11" lengthAdjust="spacingAndGlyphs" textLength="8" x="976" y="392.7651">..</text><text fill="#000000" font-family="sans-serif" font-size="11" lengthAdjust="spacingAndGlyphs" textLength="112" x="976" y="405.5698">seller_city : varchar</text><text fill="#000000" font-family="sans-serif" font-size="11" lengthAdjust="spacingAndGlyphs" textLength="122" x="976" y="418.3745">seller_state : varchar</text><!--MD5=[e7a7e1f076ef42143f937b81d7de9aa7]
class product--><rect fill="#FEFECE" filter="url(#f1rqlf8bw6yx2j)" height="180.0469" id="product" style="stroke: #A80036; stroke-width: 1.5;" width="234" x="657.5" y="19.6406"/><ellipse cx="745.75" cy="35.6406" fill="#ADD1B2" rx="11" ry="11" style="stroke: #A80036; stroke-width: 1.0;"/><path d="M749.8594,41.6406 L742.1406,41.6406 L742.1406,29.25 L749.8594,29.25 L749.8594,31.4063 L744.5938,31.4063 L744.5938,34.0781 L749.3594,34.0781 L749.3594,36.2344 L744.5938,36.2344 L744.5938,39.4844 L749.8594,39.4844 L749.8594,41.6406 Z "/><text fill="#000000" font-family="sans-serif" font-size="12" lengthAdjust="spacingAndGlyphs" textLength="49" x="766.25" y="39.7949">product</text><line style="stroke: #A80036; stroke-width: 1.5;" x1="658.5" x2="890.5" y1="51.6406" y2="51.6406"/><ellipse cx="668.5" cy="62.6406" fill="#000000" rx="3" ry="3" style="stroke: #000000; stroke-width: 1.0;"/><text fill="#000000" font-family="sans-serif" font-size="11" font-weight="bold" lengthAdjust="spacingAndGlyphs" textLength="127" x="677.5" y="65.8511">product_id : varchar</text><ellipse cx="668.5" cy="92.25" fill="#000000" rx="3" ry="3" style="stroke: #000000; stroke-width: 1.0;"/><text fill="#000000" font-family="sans-serif" font-size="11" lengthAdjust="spacingAndGlyphs" textLength="208" x="677.5" y="95.4604">production_category_name : varchar</text><line style="stroke: #A80036; stroke-width: 1.0; stroke-dasharray: 1.0,2.0;" x1="658.5" x2="759.5" y1="78.8477" y2="78.8477"/><text fill="#000000" font-family="sans-serif" font-size="11" lengthAdjust="spacingAndGlyphs" textLength="30" x="759.5" y="82.1558">fkeys</text><line style="stroke: #A80036; stroke-width: 1.0; stroke-dasharray: 1.0,2.0;" x1="789.5" x2="890.5" y1="78.8477" y2="78.8477"/><line style="stroke: #A80036; stroke-width: 1.0; stroke-dasharray: 1.0,2.0;" x1="658.5" x2="890.5" y1="102.0547" y2="102.0547"/><text fill="#000000" font-family="sans-serif" font-size="11" lengthAdjust="spacingAndGlyphs" textLength="174" x="663.5" y="116.2651">product_name_length : integer</text><text fill="#000000" font-family="sans-serif" font-size="11" lengthAdjust="spacingAndGlyphs" textLength="205" x="663.5" y="129.0698">product_description_length : integer</text><text fill="#000000" font-family="sans-serif" font-size="11" lengthAdjust="spacingAndGlyphs" textLength="163" x="663.5" y="141.8745">product_photos_qty : integer</text><text fill="#000000" font-family="sans-serif" font-size="11" lengthAdjust="spacingAndGlyphs" textLength="151" x="663.5" y="154.6792">product_weight_g : integer</text><text fill="#000000" font-family="sans-serif" font-size="11" lengthAdjust="spacingAndGlyphs" textLength="159" x="663.5" y="167.4839">product_length_cm : integer</text><text fill="#000000" font-family="sans-serif" font-size="11" lengthAdjust="spacingAndGlyphs" textLength="159" x="663.5" y="180.2886">product_height_cm : integer</text><text fill="#000000" font-family="sans-serif" font-size="11" lengthAdjust="spacingAndGlyphs" textLength="154" x="663.5" y="193.0933">product_width_cm : integer</text><!--MD5=[9985e5a676590dc9506e22151b701b54]
class order_review--><rect fill="#FEFECE" filter="url(#f1rqlf8bw6yx2j)" height="154.4375" id="order_review" style="stroke: #A80036; stroke-width: 1.5;" width="233" x="6" y="289.6406"/><ellipse cx="78.75" cy="305.6406" fill="#ADD1B2" rx="11" ry="11" style="stroke: #A80036; stroke-width: 1.0;"/><path d="M82.8594,311.6406 L75.1406,311.6406 L75.1406,299.25 L82.8594,299.25 L82.8594,301.4063 L77.5938,301.4063 L77.5938,304.0781 L82.3594,304.0781 L82.3594,306.2344 L77.5938,306.2344 L77.5938,309.4844 L82.8594,309.4844 L82.8594,311.6406 Z "/><text fill="#000000" font-family="sans-serif" font-size="12" lengthAdjust="spacingAndGlyphs" textLength="79" x="99.25" y="309.7949">order_review</text><line style="stroke: #A80036; stroke-width: 1.5;" x1="7" x2="238" y1="321.6406" y2="321.6406"/><ellipse cx="17" cy="349.4453" fill="#000000" rx="3" ry="3" style="stroke: #000000; stroke-width: 1.0;"/><text fill="#000000" font-family="sans-serif" font-size="11" lengthAdjust="spacingAndGlyphs" textLength="94" x="26" y="352.6558">order_id varchar</text><line style="stroke: #A80036; stroke-width: 1.0; stroke-dasharray: 1.0,2.0;" x1="7" x2="107.5" y1="336.043" y2="336.043"/><text fill="#000000" font-family="sans-serif" font-size="11" lengthAdjust="spacingAndGlyphs" textLength="30" x="107.5" y="339.3511">fkeys</text><line style="stroke: #A80036; stroke-width: 1.0; stroke-dasharray: 1.0,2.0;" x1="137.5" x2="238" y1="336.043" y2="336.043"/><line style="stroke: #A80036; stroke-width: 1.0; stroke-dasharray: 1.0,2.0;" x1="7" x2="238" y1="359.25" y2="359.25"/><text fill="#000000" font-family="sans-serif" font-size="11" lengthAdjust="spacingAndGlyphs" textLength="108" x="12" y="373.4604">review_id : varchar</text><text fill="#000000" font-family="sans-serif" font-size="11" lengthAdjust="spacingAndGlyphs" textLength="123" x="12" y="386.2651">review_score: integer</text><text fill="#000000" font-family="sans-serif" font-size="11" lengthAdjust="spacingAndGlyphs" textLength="174" x="12" y="399.0698">review_comment_title: varchar</text><text fill="#000000" font-family="sans-serif" font-size="11" lengthAdjust="spacingAndGlyphs" textLength="184" x="12" y="411.8745">review_comment_message: text</text><text fill="#000000" font-family="sans-serif" font-size="11" lengthAdjust="spacingAndGlyphs" textLength="153" x="12" y="424.6792">review_creation_date: date</text><text fill="#000000" font-family="sans-serif" font-size="11" lengthAdjust="spacingAndGlyphs" textLength="221" x="12" y="437.4839">review_answer_timestamp: timestamp</text><!--MD5=[b776a82f2e4be966dc95557374973bfe]
class order_item--><rect fill="#FEFECE" filter="url(#f1rqlf8bw6yx2j)" height="154.4375" id="order_item" style="stroke: #A80036; stroke-width: 1.5;" width="186" x="681.5" y="289.6406"/><ellipse cx="736.75" cy="305.6406" fill="#ADD1B2" rx="11" ry="11" style="stroke: #A80036; stroke-width: 1.0;"/><path d="M740.8594,311.6406 L733.1406,311.6406 L733.1406,299.25 L740.8594,299.25 L740.8594,301.4063 L735.5938,301.4063 L735.5938,304.0781 L740.3594,304.0781 L740.3594,306.2344 L735.5938,306.2344 L735.5938,309.4844 L740.8594,309.4844 L740.8594,311.6406 Z "/><text fill="#000000" font-family="sans-serif" font-size="12" lengthAdjust="spacingAndGlyphs" textLength="67" x="757.25" y="309.7949">order_item</text><line style="stroke: #A80036; stroke-width: 1.5;" x1="682.5" x2="866.5" y1="321.6406" y2="321.6406"/><ellipse cx="692.5" cy="349.4453" fill="#000000" rx="3" ry="3" style="stroke: #000000; stroke-width: 1.0;"/><text fill="#000000" font-family="sans-serif" font-size="11" lengthAdjust="spacingAndGlyphs" textLength="102" x="701.5" y="352.6558">order_id : varchar</text><ellipse cx="692.5" cy="362.25" fill="#000000" rx="3" ry="3" style="stroke: #000000; stroke-width: 1.0;"/><text fill="#000000" font-family="sans-serif" font-size="11" lengthAdjust="spacingAndGlyphs" textLength="114" x="701.5" y="365.4604">product_id : varchar</text><ellipse cx="692.5" cy="375.0547" fill="#000000" rx="3" ry="3" style="stroke: #000000; stroke-width: 1.0;"/><text fill="#000000" font-family="sans-serif" font-size="11" lengthAdjust="spacingAndGlyphs" textLength="103" x="701.5" y="378.2651">seller_id : varchar</text><line style="stroke: #A80036; stroke-width: 1.0; stroke-dasharray: 1.0,2.0;" x1="682.5" x2="759.5" y1="336.043" y2="336.043"/><text fill="#000000" font-family="sans-serif" font-size="11" lengthAdjust="spacingAndGlyphs" textLength="30" x="759.5" y="339.3511">fkeys</text><line style="stroke: #A80036; stroke-width: 1.0; stroke-dasharray: 1.0,2.0;" x1="789.5" x2="866.5" y1="336.043" y2="336.043"/><line style="stroke: #A80036; stroke-width: 1.0; stroke-dasharray: 1.0,2.0;" x1="682.5" x2="866.5" y1="384.8594" y2="384.8594"/><text fill="#000000" font-family="sans-serif" font-size="11" lengthAdjust="spacingAndGlyphs" textLength="122" x="687.5" y="399.0698">order_item_id integer</text><text fill="#000000" font-family="sans-serif" font-size="11" lengthAdjust="spacingAndGlyphs" textLength="174" x="687.5" y="411.8745">shipping_limit_date timestamp</text><text fill="#000000" font-family="sans-serif" font-size="11" lengthAdjust="spacingAndGlyphs" textLength="78" x="687.5" y="424.6792">price : double</text><text fill="#000000" font-family="sans-serif" font-size="11" lengthAdjust="spacingAndGlyphs" textLength="123" x="687.5" y="437.4839">freight_value : double</text><!--MD5=[bb2eb607db4b3aabdd9f88d28854601e]
class product_category_name_translation--><rect fill="#FEFECE" filter="url(#f1rqlf8bw6yx2j)" height="73.6094" id="product_category_name_translation" style="stroke: #A80036; stroke-width: 1.5;" width="257" x="1084" y="72.6406"/><ellipse cx="1099" cy="88.6406" fill="#ADD1B2" rx="11" ry="11" style="stroke: #A80036; stroke-width: 1.0;"/><path d="M1103.1094,94.6406 L1095.3906,94.6406 L1095.3906,82.25 L1103.1094,82.25 L1103.1094,84.4063 L1097.8438,84.4063 L1097.8438,87.0781 L1102.6094,87.0781 L1102.6094,89.2344 L1097.8438,89.2344 L1097.8438,92.4844 L1103.1094,92.4844 L1103.1094,94.6406 Z "/><text fill="#000000" font-family="sans-serif" font-size="12" lengthAdjust="spacingAndGlyphs" textLength="225" x="1113" y="92.7949">product_category_name_translation</text><line style="stroke: #A80036; stroke-width: 1.5;" x1="1085" x2="1340" y1="104.6406" y2="104.6406"/><ellipse cx="1095" cy="115.6406" fill="#000000" rx="3" ry="3" style="stroke: #000000; stroke-width: 1.0;"/><text fill="#000000" font-family="sans-serif" font-size="11" font-weight="bold" lengthAdjust="spacingAndGlyphs" textLength="212" x="1104" y="118.8511">product_category_name : varchar</text><line style="stroke: #A80036; stroke-width: 1.0; stroke-dasharray: 1.0,2.0;" x1="1085" x2="1340" y1="125.4453" y2="125.4453"/><text fill="#000000" font-family="sans-serif" font-size="11" lengthAdjust="spacingAndGlyphs" textLength="238" x="1090" y="139.6558">product_category_name_english : varchar</text><!--MD5=[f7753dd087ee9ed5bf7e5b9edf7c9c2a]
link order_review to order--><path d="M239.29,366.6406 C266.15,366.6406 294.95,366.6406 322.61,366.6406 " fill="none" id="order_review-&gt;order" style="stroke: #A80036; stroke-width: 1.0;"/><polygon fill="#A80036" points="327.76,366.6406,318.76,362.6406,322.76,366.6406,318.76,370.6406,327.76,366.6406" style="stroke: #A80036; stroke-width: 1.0;"/><text fill="#000000" font-family="sans-serif" font-size="13" lengthAdjust="spacingAndGlyphs" textLength="52" x="257.5" y="359.7075">order_id</text><!--MD5=[7ce7afc0d384cfdd1e0dbb3fcb10404f]
link order_payment to order--><path d="M460.5,180.6606 C460.5,208.6706 460.5,241.3706 460.5,271.4206 " fill="none" id="order_payment-&gt;order" style="stroke: #A80036; stroke-width: 1.0;"/><polygon fill="#A80036" points="460.5,276.6006,464.5,267.6006,460.5,271.6006,456.5,267.6006,460.5,276.6006" style="stroke: #A80036; stroke-width: 1.0;"/><text fill="#000000" font-family="sans-serif" font-size="13" lengthAdjust="spacingAndGlyphs" textLength="52" x="461.5" y="242.7075">order_id</text><!--MD5=[48e003f330286f4c645f4b45d8d87fb2]
link order to customer--><path d="M515.22,456.7006 C529.95,480.6806 545.65,506.2306 559.56,528.8806 " fill="none" id="order-&gt;customer" style="stroke: #A80036; stroke-width: 1.0;"/><polygon fill="#A80036" points="562.32,533.3706,561.0335,523.6062,559.7099,529.106,554.21,527.7824,562.32,533.3706" style="stroke: #A80036; stroke-width: 1.0;"/><text fill="#000000" font-family="sans-serif" font-size="13" lengthAdjust="spacingAndGlyphs" textLength="79" x="545.5" y="499.7075">customer_id</text><!--MD5=[9b630cb6dc2d252c86fdf0d9c678b35f]
reverse link order to order_item--><path d="M598.43,366.6406 C626.43,366.6406 655.26,366.6406 681.28,366.6406 " fill="none" id="order&lt;-order_item" style="stroke: #A80036; stroke-width: 1.0;"/><polygon fill="#A80036" points="593.21,366.6406,602.21,370.6406,598.21,366.6406,602.21,362.6406,593.21,366.6406" style="stroke: #A80036; stroke-width: 1.0;"/><text fill="#000000" font-family="sans-serif" font-size="13" lengthAdjust="spacingAndGlyphs" textLength="52" x="611.25" y="359.7075">order_id</text><!--MD5=[41b2b5e6e4ad00be07df53f21bab5161]
link order_item to seller--><path d="M867.89,366.6406 C894.37,366.6406 923.42,366.6406 950.68,366.6406 " fill="none" id="order_item-&gt;seller" style="stroke: #A80036; stroke-width: 1.0;"/><polygon fill="#A80036" points="955.75,366.6406,946.75,362.6406,950.75,366.6406,946.75,370.6406,955.75,366.6406" style="stroke: #A80036; stroke-width: 1.0;"/><text fill="#000000" font-family="sans-serif" font-size="13" lengthAdjust="spacingAndGlyphs" textLength="52" x="885.75" y="359.7075">seller_id</text><!--MD5=[8946eae5fe322a6f243949276f2b040e]
link seller to geolocation--><path d="M1052.47,425.2606 C1049.14,457.1406 1044.98,496.9306 1041.5,530.2006 " fill="none" id="seller-&gt;geolocation" style="stroke: #A80036; stroke-width: 1.0;"/><polygon fill="#A80036" points="1040.95,535.4806,1045.8791,526.954,1041.4786,530.5086,1037.924,526.1082,1040.95,535.4806" style="stroke: #A80036; stroke-width: 1.0;"/><text fill="#000000" font-family="sans-serif" font-size="13" lengthAdjust="spacingAndGlyphs" textLength="139" x="1046.5" y="499.7075">seller_zip_code_prefix</text><!--MD5=[997372db5bdf0a67bdc4bf826f5f92d5]
link customer to geolocation--><path d="M715.27,598.1406 C784.13,598.1406 871.05,598.1406 936.8,598.1406 " fill="none" id="customer-&gt;geolocation" style="stroke: #A80036; stroke-width: 1.0;"/><polygon fill="#A80036" points="941.89,598.1406,932.89,594.1406,936.89,598.1406,932.89,602.1406,941.89,598.1406" style="stroke: #A80036; stroke-width: 1.0;"/><text fill="#000000" font-family="sans-serif" font-size="13" lengthAdjust="spacingAndGlyphs" textLength="166" x="745.5" y="591.2075">customer_zip_code_prefix</text><!--MD5=[bb790d5fa3b6eef70832484567f3e8f8]
link product to product_category_name_translation--><path d="M891.59,109.6406 C949.26,109.6406 1019.08,109.6406 1078.84,109.6406 " fill="none" id="product-&gt;product_category_name_translation" style="stroke: #A80036; stroke-width: 1.0;"/><polygon fill="#A80036" points="1083.86,109.6406,1074.86,105.6406,1078.86,109.6406,1074.86,113.6406,1083.86,109.6406" style="stroke: #A80036; stroke-width: 1.0;"/><text fill="#000000" font-family="sans-serif" font-size="13" lengthAdjust="spacingAndGlyphs" textLength="156" x="909.75" y="102.7075">product_category_name</text><!--MD5=[6ba8d268f83b391d2917ef41051ab6d1]
reverse link product to order_item--><path d="M774.5,205.0106 C774.5,232.8906 774.5,263.0506 774.5,289.6306 " fill="none" id="product&lt;-order_item" style="stroke: #A80036; stroke-width: 1.0;"/><polygon fill="#A80036" points="774.5,199.8306,770.5,208.8306,774.5,204.8306,778.5,208.8306,774.5,199.8306" style="stroke: #A80036; stroke-width: 1.0;"/><text fill="#000000" font-family="sans-serif" font-size="13" lengthAdjust="spacingAndGlyphs" textLength="67" x="775.5" y="242.7075">product_id</text><!--MD5=[80a7de826e7d3e6c037dbbe0947fc55a]
@startuml
header Fig. Olist Brazilian Database

entity customer {
  * **customer_id : str**
  .. fkeys ..
  * customer_zip_code_prefix : varchar
  ..
  customer_unique_id : varchar
  customer_city : varchar
  customer_state : varchar
}

entity geolocation {
  * **zip_code_prefix : varchar**
  ..
  geolocation_lat : double
  geolocation_lng : double
  geolocation_city : varchar
  geolocation_state : varchar

}

entity order {
    * **order_id : varchar**
    .. fkeys ..
    * customer_id : varchar
    ..
    order_status : varchar 
    order_purchase_timestamp : timestamp
    order_approved_at : timestamp
    order_delivered_carrier_date : timestamp
    order_delivered_customer_date : timestamp
    order_estimated_delivery_date : timestamp

}

entity order_payment {
    .. fkeys ..
    * order_id : varchar
    ..
    order_payment : varchar    
    payment_sequential : integer
    payment_type : varchar
    payment_installments : varchar
    payment_value : double
}

entity seller {
    * **seller_id : varchar**
    .. fkeys ..    
    * seller_zip_code_prefix : varchar
    * ..
    seller_city : varchar
    seller_state : varchar
}

entity product {
    * **product_id : varchar**
    .. fkeys ..
    * production_category_name : varchar
    ..
    product_name_length : integer
    product_description_length : integer
    product_photos_qty : integer
    product_weight_g : integer
    product_length_cm : integer
    product_height_cm : integer
    product_width_cm : integer
}

entity order_review {
    .. fkeys ..
    * order_id varchar
    ..
    review_id : varchar
    review_score: integer
    review_comment_title: varchar
    review_comment_message: text
    review_creation_date: date
    review_answer_timestamp: timestamp
}

entity order_item {
    .. fkeys ..
    * order_id : varchar
    * product_id : varchar
    * seller_id : varchar
    ..
    order_item_id integer
    shipping_limit_date timestamp
    price : double
    freight_value : double
}

entity product_category_name_translation {
    * **product_category_name : varchar**
    ..
    product_category_name_english : varchar
}

order_review -r-> order : order_id
order_payment -d-> order : order_id
order -d-> customer : customer_id
order_item -l-> order : order_id
order_item -r-> seller : seller_id
seller -d-> geolocation : seller_zip_code_prefix
customer -r- -> geolocation : customer_zip_code_prefix
product -r-> product_category_name_translation : product_category_name
product <-u- order_item : product_id

hide empty members

@enduml

PlantUML version 1.2020.02(Sun Mar 01 18:22:07 CST 2020)
(GPL source distribution)
Java Runtime: OpenJDK Runtime Environment
JVM: OpenJDK 64-Bit Server VM
Java Version: 11.0.29+7
Operating System: Linux
Default Encoding: UTF-8
Language: en
Country: null
--></g></svg>