<?xml version="1.0" encoding="UTF-8" standalone="no"?><svg xmlns="http://www.w3.org/2000/svg" xmlns:xlink="http://www.w3.org/1999/xlink" contentScriptType="application/ecmascript" contentStyleType="text/css" height="593px" preserveAspectRatio="none" style="width:313px;height:593px;" version="1.1" viewBox="0 0 313 593" width="313px" zoomAndPan="magnify"><defs><filter height="300%" id="f1qu4qut26oete" width="300%" x="-1" y="-1"><feGaussianBlur result="blurOut" stdDeviation="2.0"/><feColorMatrix in="blurOut" result="blurOut2" type="matrix" values="0 0 0 0 0 0 0 0 0 0 0 0 0 0 0 0 0 0 .4 0"/><feOffset dx="4.0" dy="4.0" in="blurOut2" result="blurOut3"/><feBlend in="SourceGraphic" in2="blurOut3" mode="normal"/></filter></defs><g><text fill="#888888" font-family="sans-serif" font-size="10" lengthAdjust="spacingAndGlyphs" textLength="29" x="272" y="9.2822">Fig. 3.</text><!--MD5=[9b631eb75cfa94d536624ca68efd4537]
class AbstractViewer--><rect fill="#FEFECE" filter="url(#f1qu4qut26oete)" height="130.7656" id="AbstractViewer" style="stroke: #A80036; stroke-width: 1.5;" width="159" x="65" y="111.6406"/><ellipse cx="94.85" cy="130.6094" fill="#A9DCDF" rx="11" ry="11" style="stroke: #A80036; stroke-width: 1.0;"/><path d="M94.9594,125.9531 L93.8031,131.0313 L96.1313,131.0313 L94.9594,125.9531 Z M93.475,123.7188 L96.4594,123.7188 L99.8188,136.1094 L97.3656,136.1094 L96.6,133.0469 L93.3188,133.0469 L92.5688,136.1094 L90.1313,136.1094 L93.475,123.7188 Z "/><text fill="#000000" font-family="sans-serif" font-size="12" font-style="italic" lengthAdjust="spacingAndGlyphs" textLength="60" x="129.15" y="127.7793">«viewers»</text><text fill="#000000" font-family="sans-serif" font-size="12" font-style="italic" lengthAdjust="spacingAndGlyphs" textLength="94" x="112.15" y="141.748">AbstractViewer</text><line style="stroke: #A80036; stroke-width: 1.5;" x1="66" x2="223" y1="149.5781" y2="149.5781"/><polygon fill="none" points="76,155.5781,80,159.5781,76,163.5781,72,159.5781" style="stroke: #B38D22; stroke-width: 1.0;"/><text fill="#000000" font-family="sans-serif" font-size="11" lengthAdjust="spacingAndGlyphs" textLength="133" x="85" y="163.7886">boolean _active = false</text><line style="stroke: #A80036; stroke-width: 1.5;" x1="66" x2="223" y1="170.3828" y2="170.3828"/><ellipse cx="76" cy="181.3828" fill="#84BE84" rx="3" ry="3" style="stroke: #038048; stroke-width: 1.0;"/><text fill="#000000" font-family="sans-serif" font-size="11" font-style="italic" lengthAdjust="spacingAndGlyphs" textLength="85" x="85" y="184.5933">void iActivate()</text><ellipse cx="76" cy="194.1875" fill="#84BE84" rx="3" ry="3" style="stroke: #038048; stroke-width: 1.0;"/><text fill="#000000" font-family="sans-serif" font-size="11" font-style="italic" lengthAdjust="spacingAndGlyphs" textLength="99" x="85" y="197.3979">void iDeactivate()</text><ellipse cx="76" cy="206.9922" fill="#84BE84" rx="3" ry="3" style="stroke: #038048; stroke-width: 1.0;"/><text fill="#000000" font-family="sans-serif" font-size="11" font-style="italic" lengthAdjust="spacingAndGlyphs" textLength="83" x="85" y="210.2026">void iIsActive()</text><ellipse cx="76" cy="219.7969" fill="#84BE84" rx="3" ry="3" style="stroke: #038048; stroke-width: 1.0;"/><text fill="#000000" font-family="sans-serif" font-size="11" font-style="italic" lengthAdjust="spacingAndGlyphs" textLength="80" x="85" y="223.0073">void iDisplay()</text><polygon fill="#FFFF44" points="76,227.6016,80,231.6016,76,235.6016,72,231.6016" style="stroke: #B38D22; stroke-width: 1.0;"/><text fill="#000000" font-family="sans-serif" font-size="11" font-style="italic" lengthAdjust="spacingAndGlyphs" textLength="68" x="85" y="235.812">void iDraw()</text><!--MD5=[ed6366fe2e1ee46e4dcc0db9c641f576]
class GridViewer--><rect fill="#FEFECE" filter="url(#f1qu4qut26oete)" height="84.3516" id="GridViewer" style="stroke: #A80036; stroke-width: 1.5;" width="277" x="6" y="302.6406"/><ellipse cx="107.25" cy="321.6094" fill="#ADD1B2" rx="11" ry="11" style="stroke: #A80036; stroke-width: 1.0;"/><path d="M110.2188,327.25 Q109.6406,327.5469 109,327.6875 Q108.3594,327.8438 107.6563,327.8438 Q105.1563,327.8438 103.8281,326.2031 Q102.5156,324.5469 102.5156,321.4219 Q102.5156,318.2969 103.8281,316.6406 Q105.1563,314.9844 107.6563,314.9844 Q108.3594,314.9844 109,315.1406 Q109.6563,315.2969 110.2188,315.5938 L110.2188,318.3125 Q109.5938,317.7344 109,317.4688 Q108.4063,317.1875 107.7813,317.1875 Q106.4375,317.1875 105.75,318.2656 Q105.0625,319.3281 105.0625,321.4219 Q105.0625,323.5156 105.75,324.5938 Q106.4375,325.6563 107.7813,325.6563 Q108.4063,325.6563 109,325.3906 Q109.5938,325.1094 110.2188,324.5313 L110.2188,327.25 Z "/><text fill="#000000" font-family="sans-serif" font-size="12" font-style="italic" lengthAdjust="spacingAndGlyphs" textLength="60" x="130.75" y="318.7793">«viewers»</text><text fill="#000000" font-family="sans-serif" font-size="12" lengthAdjust="spacingAndGlyphs" textLength="66" x="127.75" y="332.748">GridViewer</text><line style="stroke: #A80036; stroke-width: 1.5;" x1="7" x2="282" y1="340.5781" y2="340.5781"/><rect fill="#F24D5C" height="6" style="stroke: #C82930; stroke-width: 1.0;" width="6" x="14" y="348.5781"/><text fill="#000000" font-family="sans-serif" font-size="11" lengthAdjust="spacingAndGlyphs" textLength="251" x="26" y="354.7886">void drawLines(geometry::ISegmentFunctor)</text><ellipse cx="17" cy="364.3828" fill="#84BE84" rx="3" ry="3" style="stroke: #038048; stroke-width: 1.0;"/><text fill="#000000" font-family="sans-serif" font-size="11" font-style="italic" lengthAdjust="spacingAndGlyphs" textLength="82" x="26" y="367.5933">void initialize()</text><polygon fill="#FFFF44" points="17,372.1875,21,376.1875,17,380.1875,13,376.1875" style="stroke: #B38D22; stroke-width: 1.0;"/><text fill="#000000" font-family="sans-serif" font-size="11" font-style="italic" lengthAdjust="spacingAndGlyphs" textLength="68" x="26" y="380.3979">void iDraw()</text><!--MD5=[fe041ae09d2592fb57bea2e4db1c26f8]
class ISegmentFunctor--><rect fill="#FEFECE" filter="url(#f1qu4qut26oete)" height="37.9375" id="ISegmentFunctor" style="stroke: #A80036; stroke-width: 1.5;" width="140" x="13.5" y="446.6406"/><ellipse cx="28.5" cy="465.6094" fill="#B4A7E5" rx="11" ry="11" style="stroke: #A80036; stroke-width: 1.0;"/><path d="M24.4219,461.375 L24.4219,459.2188 L31.8125,459.2188 L31.8125,461.375 L29.3438,461.375 L29.3438,469.4531 L31.8125,469.4531 L31.8125,471.6094 L24.4219,471.6094 L24.4219,469.4531 L26.8906,469.4531 L26.8906,461.375 L24.4219,461.375 Z "/><text fill="#000000" font-family="sans-serif" font-size="12" font-style="italic" lengthAdjust="spacingAndGlyphs" textLength="74" x="59.5" y="462.7793">«geometry»</text><text fill="#000000" font-family="sans-serif" font-size="12" font-style="italic" lengthAdjust="spacingAndGlyphs" textLength="108" x="42.5" y="476.748">ISegmentFunctor</text><!--MD5=[220eb97dd738422dcfb96be6c83c4129]
class Segment--><rect fill="#FEFECE" filter="url(#f1qu4qut26oete)" height="37.9375" id="Segment" style="stroke: #A80036; stroke-width: 1.5;" width="102" x="93.5" y="544.6406"/><ellipse cx="108.5" cy="563.6094" fill="#ADD1B2" rx="11" ry="11" style="stroke: #A80036; stroke-width: 1.0;"/><path d="M111.4688,569.25 Q110.8906,569.5469 110.25,569.6875 Q109.6094,569.8438 108.9063,569.8438 Q106.4063,569.8438 105.0781,568.2031 Q103.7656,566.5469 103.7656,563.4219 Q103.7656,560.2969 105.0781,558.6406 Q106.4063,556.9844 108.9063,556.9844 Q109.6094,556.9844 110.25,557.1406 Q110.9063,557.2969 111.4688,557.5938 L111.4688,560.3125 Q110.8438,559.7344 110.25,559.4688 Q109.6563,559.1875 109.0313,559.1875 Q107.6875,559.1875 107,560.2656 Q106.3125,561.3281 106.3125,563.4219 Q106.3125,565.5156 107,566.5938 Q107.6875,567.6563 109.0313,567.6563 Q109.6563,567.6563 110.25,567.3906 Q110.8438,567.1094 111.4688,566.5313 L111.4688,569.25 Z "/><text fill="#000000" font-family="sans-serif" font-size="12" font-style="italic" lengthAdjust="spacingAndGlyphs" textLength="74" x="120.5" y="560.7793">«geometry»</text><text fill="#000000" font-family="sans-serif" font-size="12" lengthAdjust="spacingAndGlyphs" textLength="56" x="129.5" y="574.748">Segment</text><!--MD5=[335f4d9be48430461c68bf6d6fdba145]
class App--><rect fill="#FEFECE" filter="url(#f1qu4qut26oete)" height="32" id="App" style="stroke: #A80036; stroke-width: 1.5;" width="56" x="116.5" y="19.6406"/><ellipse cx="131.5" cy="35.6406" fill="#ADD1B2" rx="11" ry="11" style="stroke: #A80036; stroke-width: 1.0;"/><path d="M134.4688,41.2813 Q133.8906,41.5781 133.25,41.7188 Q132.6094,41.875 131.9063,41.875 Q129.4063,41.875 128.0781,40.2344 Q126.7656,38.5781 126.7656,35.4531 Q126.7656,32.3281 128.0781,30.6719 Q129.4063,29.0156 131.9063,29.0156 Q132.6094,29.0156 133.25,29.1719 Q133.9063,29.3281 134.4688,29.625 L134.4688,32.3438 Q133.8438,31.7656 133.25,31.5 Q132.6563,31.2188 132.0313,31.2188 Q130.6875,31.2188 130,32.2969 Q129.3125,33.3594 129.3125,35.4531 Q129.3125,37.5469 130,38.625 Q130.6875,39.6875 132.0313,39.6875 Q132.6563,39.6875 133.25,39.4219 Q133.8438,39.1406 134.4688,38.5625 L134.4688,41.2813 Z "/><text fill="#000000" font-family="sans-serif" font-size="12" lengthAdjust="spacingAndGlyphs" textLength="24" x="145.5" y="39.7949">App</text><!--MD5=[18da5c9077528e08369a0435011f1d4f]
reverse link AbstractViewer to GridViewer--><path d="M144.5,263.4606 C144.5,276.9606 144.5,290.3806 144.5,302.2606 " fill="none" id="AbstractViewer&lt;-GridViewer" style="stroke: #A80036; stroke-width: 1.0;"/><polygon fill="none" points="137.5,263.0806,144.5,243.0706,151.5,263.0706,137.5,263.0806" style="stroke: #A80036; stroke-width: 1.0;"/><!--MD5=[264e1efd5905a6b0eec6422f4f027f95]
reverse link App to AbstractViewer--><path d="M144.5,65.0406 C144.5,78.5306 144.5,95.2606 144.5,111.6006 " fill="none" id="App&lt;-AbstractViewer" style="stroke: #A80036; stroke-width: 1.0;"/><polygon fill="#A80036" points="144.5,51.8306,140.5,57.8306,144.5,63.8306,148.5,57.8306,144.5,51.8306" style="stroke: #A80036; stroke-width: 1.0;"/><!--MD5=[ab0eb920eed4431a627e86bd812cd549]
link GridViewer to ISegmentFunctor--><path d="M123.34,386.9306 C113.92,405.3006 103.19,426.2406 95.24,441.7406 " fill="none" id="GridViewer-&gt;ISegmentFunctor" style="stroke: #A80036; stroke-width: 1.0; stroke-dasharray: 7.0,7.0;"/><polygon fill="#A80036" points="92.86,446.3806,100.5184,440.188,95.1361,441.9287,93.3954,436.5463,92.86,446.3806" style="stroke: #A80036; stroke-width: 1.0;"/><!--MD5=[3c9ee7eb50ce6e2aef26858c02a60249]
link GridViewer to Segment--><path d="M163.7789,398.4122 C163.7789,398.4122 176.24,456.4406 171.5,484.6406 C168.8,500.7006 163.17,517.8806 157.75,532.0106 " fill="none" id="GridViewer-Segment" style="stroke: #A80036; stroke-width: 1.0;"/><polygon fill="#A80036" points="152.72,544.5006,159.7932,537.6472,154.5883,539.8628,152.3727,534.6579,152.72,544.5006" style="stroke: #A80036; stroke-width: 1.0;"/><line style="stroke: #A80036; stroke-width: 1.0;" x1="154.5883" x2="157.58" y1="539.8628" y2="532.4406"/><polygon fill="#A80036" points="160.39,386.9006,158.2472,393.786,163.7789,398.4122,165.9216,391.5268,160.39,386.9006" style="stroke: #A80036; stroke-width: 1.0;"/><!--MD5=[ea1731399f735098e4db9a4de3014cde]
link ISegmentFunctor to Segment--><path d="M94.97,484.7006 C104.88,500.2906 119.24,522.8906 129.95,539.7506 " fill="none" id="ISegmentFunctor-&gt;Segment" style="stroke: #A80036; stroke-width: 1.0; stroke-dasharray: 7.0,7.0;"/><polygon fill="#A80036" points="132.87,544.3406,131.4213,534.5989,130.1893,540.12,124.6682,538.888,132.87,544.3406" style="stroke: #A80036; stroke-width: 1.0;"/><!--MD5=[6948c3c4fce55358fe7bc724f4a4021d]
@startuml

header Fig. 3.
abstract AbstractViewer <<viewers>>
{
	# boolean _active = false
	+ {abstract} void iActivate()
	+ {abstract} void iDeactivate()
	+ {abstract} void iIsActive()
	+ {abstract} void iDisplay()
	# {abstract} void iDraw()
}
class GridViewer <<viewers>> extends AbstractViewer
{
	- void drawLines(geometry::ISegmentFunctor)
	+ {abstract} void initialize()
	# {abstract} void iDraw()
}
interface ISegmentFunctor <<geometry>>
class Segment <<geometry>>

App *- - AbstractViewer
GridViewer ..> ISegmentFunctor
GridViewer *- -> Segment
ISegmentFunctor ..>  Segment
hide empty members
@enduml

PlantUML version 1.2020.02(Sun Mar 01 18:22:07 CST 2020)
(GPL source distribution)
Java Runtime: OpenJDK Runtime Environment
JVM: OpenJDK 64-Bit Server VM
Java Version: 11.0.29+7
Operating System: Linux
Default Encoding: UTF-8
Language: en
Country: null
--></g></svg>