<?xml version="1.0" encoding="UTF-8" standalone="no"?><svg xmlns="http://www.w3.org/2000/svg" xmlns:xlink="http://www.w3.org/1999/xlink" contentScriptType="application/ecmascript" contentStyleType="text/css" height="417px" preserveAspectRatio="none" style="width:525px;height:417px;" version="1.1" viewBox="0 0 525 417" width="525px" zoomAndPan="magnify"><defs><filter height="300%" id="f1j3i94kknkmmr" width="300%" x="-1" y="-1"><feGaussianBlur result="blurOut" stdDeviation="2.0"/><feColorMatrix in="blurOut" result="blurOut2" type="matrix" values="0 0 0 0 0 0 0 0 0 0 0 0 0 0 0 0 0 0 .4 0"/><feOffset dx="4.0" dy="4.0" in="blurOut2" result="blurOut3"/><feBlend in="SourceGraphic" in2="blurOut3" mode="normal"/></filter></defs><g><text fill="#888888" font-family="sans-serif" font-size="10" lengthAdjust="spacingAndGlyphs" textLength="29" x="484" y="9.2822">Fig. 3.</text><!--MD5=[867ba45c4329fa30d64c66f99445c130]
class ICellFunctor--><rect fill="#FEFECE" filter="url(#f1j3i94kknkmmr)" height="58.7422" id="ICellFunctor" style="stroke: #A80036; stroke-width: 1.5;" width="138" x="57.5" y="347.6406"/><ellipse cx="86.9" cy="366.6094" fill="#B4A7E5" rx="11" ry="11" style="stroke: #A80036; stroke-width: 1.0;"/><path d="M82.8219,362.375 L82.8219,360.2188 L90.2125,360.2188 L90.2125,362.375 L87.7438,362.375 L87.7438,370.4531 L90.2125,370.4531 L90.2125,372.6094 L82.8219,372.6094 L82.8219,370.4531 L85.2906,370.4531 L85.2906,362.375 L82.8219,362.375 Z "/><text fill="#000000" font-family="sans-serif" font-size="12" font-style="italic" lengthAdjust="spacingAndGlyphs" textLength="36" x="123.1" y="363.7793">«env»</text><text fill="#000000" font-family="sans-serif" font-size="12" font-style="italic" lengthAdjust="spacingAndGlyphs" textLength="74" x="104.1" y="377.748">ICellFunctor</text><line style="stroke: #A80036; stroke-width: 1.5;" x1="58.5" x2="194.5" y1="385.5781" y2="385.5781"/><ellipse cx="68.5" cy="396.5781" fill="#84BE84" rx="3" ry="3" style="stroke: #038048; stroke-width: 1.0;"/><text fill="#000000" font-family="sans-serif" font-size="11" font-style="italic" lengthAdjust="spacingAndGlyphs" textLength="112" x="77.5" y="399.7886">void operator(CELL)</text><!--MD5=[9b631eb75cfa94d536624ca68efd4537]
class AbstractViewer--><rect fill="#FEFECE" filter="url(#f1j3i94kknkmmr)" height="130.7656" id="AbstractViewer" style="stroke: #A80036; stroke-width: 1.5;" width="159" x="309" y="19.6406"/><ellipse cx="338.85" cy="38.6094" fill="#A9DCDF" rx="11" ry="11" style="stroke: #A80036; stroke-width: 1.0;"/><path d="M338.9594,33.9531 L337.8031,39.0313 L340.1313,39.0313 L338.9594,33.9531 Z M337.475,31.7188 L340.4594,31.7188 L343.8188,44.1094 L341.3656,44.1094 L340.6,41.0469 L337.3188,41.0469 L336.5688,44.1094 L334.1313,44.1094 L337.475,31.7188 Z "/><text fill="#000000" font-family="sans-serif" font-size="12" font-style="italic" lengthAdjust="spacingAndGlyphs" textLength="60" x="373.15" y="35.7793">«viewers»</text><text fill="#000000" font-family="sans-serif" font-size="12" font-style="italic" lengthAdjust="spacingAndGlyphs" textLength="94" x="356.15" y="49.748">AbstractViewer</text><line style="stroke: #A80036; stroke-width: 1.5;" x1="310" x2="467" y1="57.5781" y2="57.5781"/><polygon fill="none" points="320,63.5781,324,67.5781,320,71.5781,316,67.5781" style="stroke: #B38D22; stroke-width: 1.0;"/><text fill="#000000" font-family="sans-serif" font-size="11" lengthAdjust="spacingAndGlyphs" textLength="133" x="329" y="71.7886">boolean _active = false</text><line style="stroke: #A80036; stroke-width: 1.5;" x1="310" x2="467" y1="78.3828" y2="78.3828"/><ellipse cx="320" cy="89.3828" fill="#84BE84" rx="3" ry="3" style="stroke: #038048; stroke-width: 1.0;"/><text fill="#000000" font-family="sans-serif" font-size="11" font-style="italic" lengthAdjust="spacingAndGlyphs" textLength="85" x="329" y="92.5933">void iActivate()</text><ellipse cx="320" cy="102.1875" fill="#84BE84" rx="3" ry="3" style="stroke: #038048; stroke-width: 1.0;"/><text fill="#000000" font-family="sans-serif" font-size="11" font-style="italic" lengthAdjust="spacingAndGlyphs" textLength="99" x="329" y="105.3979">void iDeactivate()</text><ellipse cx="320" cy="114.9922" fill="#84BE84" rx="3" ry="3" style="stroke: #038048; stroke-width: 1.0;"/><text fill="#000000" font-family="sans-serif" font-size="11" font-style="italic" lengthAdjust="spacingAndGlyphs" textLength="83" x="329" y="118.2026">void iIsActive()</text><ellipse cx="320" cy="127.7969" fill="#84BE84" rx="3" ry="3" style="stroke: #038048; stroke-width: 1.0;"/><text fill="#000000" font-family="sans-serif" font-size="11" font-style="italic" lengthAdjust="spacingAndGlyphs" textLength="80" x="329" y="131.0073">void iDisplay()</text><polygon fill="#FFFF44" points="320,135.6016,324,139.6016,320,143.6016,316,139.6016" style="stroke: #B38D22; stroke-width: 1.0;"/><text fill="#000000" font-family="sans-serif" font-size="11" font-style="italic" lengthAdjust="spacingAndGlyphs" textLength="68" x="329" y="143.812">void iDraw()</text><!--MD5=[8d812a73a7880ea980dcb456eab0ace8]
class PheromonViewer--><rect fill="#FEFECE" filter="url(#f1j3i94kknkmmr)" height="58.7422" id="PheromonViewer" style="stroke: #A80036; stroke-width: 1.5;" width="241" x="6" y="211.6406"/><ellipse cx="69.75" cy="230.6094" fill="#ADD1B2" rx="11" ry="11" style="stroke: #A80036; stroke-width: 1.0;"/><path d="M72.7188,236.25 Q72.1406,236.5469 71.5,236.6875 Q70.8594,236.8438 70.1563,236.8438 Q67.6563,236.8438 66.3281,235.2031 Q65.0156,233.5469 65.0156,230.4219 Q65.0156,227.2969 66.3281,225.6406 Q67.6563,223.9844 70.1563,223.9844 Q70.8594,223.9844 71.5,224.1406 Q72.1563,224.2969 72.7188,224.5938 L72.7188,227.3125 Q72.0938,226.7344 71.5,226.4688 Q70.9063,226.1875 70.2813,226.1875 Q68.9375,226.1875 68.25,227.2656 Q67.5625,228.3281 67.5625,230.4219 Q67.5625,232.5156 68.25,233.5938 Q68.9375,234.6563 70.2813,234.6563 Q70.9063,234.6563 71.5,234.3906 Q72.0938,234.1094 72.7188,233.5313 L72.7188,236.25 Z "/><text fill="#000000" font-family="sans-serif" font-size="12" font-style="italic" lengthAdjust="spacingAndGlyphs" textLength="60" x="112.75" y="227.7793">«viewers»</text><text fill="#000000" font-family="sans-serif" font-size="12" lengthAdjust="spacingAndGlyphs" textLength="105" x="90.25" y="241.748">PheromonViewer</text><line style="stroke: #A80036; stroke-width: 1.5;" x1="7" x2="246" y1="249.5781" y2="249.5781"/><rect fill="#F24D5C" height="6" style="stroke: #C82930; stroke-width: 1.0;" width="6" x="14" y="257.5781"/><text fill="#000000" font-family="sans-serif" font-size="11" lengthAdjust="spacingAndGlyphs" textLength="215" x="26" y="263.7886">void drawPheromon(env::ICellFunctor)</text><!--MD5=[edaff8dde2e4e225ba8d65feedee69ba]
class ViewerMgr--><rect fill="#FEFECE" filter="url(#f1j3i94kknkmmr)" height="58.7422" id="ViewerMgr" style="stroke: #A80036; stroke-width: 1.5;" width="212" x="282.5" y="211.6406"/><ellipse cx="352.25" cy="230.6094" fill="#ADD1B2" rx="11" ry="11" style="stroke: #A80036; stroke-width: 1.0;"/><path d="M355.2188,236.25 Q354.6406,236.5469 354,236.6875 Q353.3594,236.8438 352.6563,236.8438 Q350.1563,236.8438 348.8281,235.2031 Q347.5156,233.5469 347.5156,230.4219 Q347.5156,227.2969 348.8281,225.6406 Q350.1563,223.9844 352.6563,223.9844 Q353.3594,223.9844 354,224.1406 Q354.6563,224.2969 355.2188,224.5938 L355.2188,227.3125 Q354.5938,226.7344 354,226.4688 Q353.4063,226.1875 352.7813,226.1875 Q351.4375,226.1875 350.75,227.2656 Q350.0625,228.3281 350.0625,230.4219 Q350.0625,232.5156 350.75,233.5938 Q351.4375,234.6563 352.7813,234.6563 Q353.4063,234.6563 354,234.3906 Q354.5938,234.1094 355.2188,233.5313 L355.2188,236.25 Z "/><text fill="#000000" font-family="sans-serif" font-size="12" font-style="italic" lengthAdjust="spacingAndGlyphs" textLength="60" x="374.75" y="227.7793">«viewers»</text><text fill="#000000" font-family="sans-serif" font-size="12" lengthAdjust="spacingAndGlyphs" textLength="64" x="372.75" y="241.748">ViewerMgr</text><line style="stroke: #A80036; stroke-width: 1.5;" x1="283.5" x2="493.5" y1="249.5781" y2="249.5781"/><ellipse cx="293.5" cy="260.5781" fill="#84BE84" rx="3" ry="3" style="stroke: #038048; stroke-width: 1.0;"/><text fill="#000000" font-family="sans-serif" font-size="11" font-style="italic" lengthAdjust="spacingAndGlyphs" textLength="186" x="302.5" y="263.7886">void iAddViewer(AbstractViewer)</text><!--MD5=[e2fc6b521416aa04216ec10c491feb7a]
reverse link AbstractViewer to PheromonViewer--><path d="M291.34,143.2506 C251.84,166.4706 207.93,192.2806 175.37,211.4106 " fill="none" id="AbstractViewer&lt;-PheromonViewer" style="stroke: #A80036; stroke-width: 1.0;"/><polygon fill="none" points="288.04,137.0706,308.82,132.9706,295.13,149.1406,288.04,137.0706" style="stroke: #A80036; stroke-width: 1.0;"/><!--MD5=[000b28d0c48dc867ea494af09a63c27a]
reverse link AbstractViewer to ViewerMgr--><path d="M375.82,171.3906 C376.04,185.7806 376.87,199.7806 378.3,211.3506 " fill="none" id="AbstractViewer&lt;-ViewerMgr" style="stroke: #A80036; stroke-width: 1.0;"/><polygon fill="none" points="368.82,170.9806,375.89,151.0006,382.82,171.0306,368.82,170.9806" style="stroke: #A80036; stroke-width: 1.0;"/><!--MD5=[3a52df45f83577b4047aa23e2a2b15eb]
link ViewerMgr to AbstractViewer--><path d="M400.5528,199.4162 C400.5528,199.4162 401.97,176.1006 402,164.4206 " fill="none" id="ViewerMgr-AbstractViewer" style="stroke: #A80036; stroke-width: 1.0;"/><polygon fill="#A80036" points="401.85,151.0006,397.9491,160.044,401.9049,156.0003,405.9487,159.9561,401.85,151.0006" style="stroke: #A80036; stroke-width: 1.0;"/><line style="stroke: #A80036; stroke-width: 1.0;" x1="401.9049" x2="401.99" y1="156.0003" y2="164.0006"/><polygon fill="#FFFFFF" points="399.3,211.3506,403.9045,205.801,400.5528,199.4162,395.9483,204.9658,399.3,211.3506" style="stroke: #A80036; stroke-width: 1.0;"/><!--MD5=[eed8d54bea56b44ba2543c984fbb6432]
link PheromonViewer to ICellFunctor--><path d="M126.5,270.8906 C126.5,291.8206 126.5,320.2406 126.5,342.2706 " fill="none" id="PheromonViewer-&gt;ICellFunctor" style="stroke: #A80036; stroke-width: 1.0; stroke-dasharray: 7.0,7.0;"/><polygon fill="#A80036" points="126.5,347.4406,130.5,338.4406,126.5,342.4406,122.5,338.4406,126.5,347.4406" style="stroke: #A80036; stroke-width: 1.0;"/><text fill="#000000" font-family="sans-serif" font-size="13" lengthAdjust="spacingAndGlyphs" textLength="28" x="127.5" y="313.7075">runs</text><polygon fill="#000000" points="137,322.7734,140,328.7734,143,322.7734,137,322.7734" style="stroke: #000000; stroke-width: 1.0;"/><!--MD5=[f8ee737ba84f09aa30c67431099e74f9]
@startuml
header Fig. 3.
interface ICellFunctor <<env>> {
    + {abstract} void operator(CELL)
}
abstract AbstractViewer <<viewers>>
{
	# boolean _active = false
	+ {abstract} void iActivate()
	+ {abstract} void iDeactivate()
	+ {abstract} void iIsActive()
	+ {abstract} void iDisplay()
	# {abstract} void iDraw()
}
class PheromonViewer <<viewers>> extends AbstractViewer {
    - void drawPheromon(env::ICellFunctor)
}
class ViewerMgr <<viewers>> extends AbstractViewer
{
	+ {abstract} void iAddViewer(AbstractViewer)
}
ViewerMgr o- -> AbstractViewer
PheromonViewer ..> ICellFunctor : runs >
hide empty members
@enduml

PlantUML version 1.2020.02(Sun Mar 01 18:22:07 CST 2020)
(GPL source distribution)
Java Runtime: OpenJDK Runtime Environment
JVM: OpenJDK 64-Bit Server VM
Java Version: 11.0.29+7
Operating System: Linux
Default Encoding: UTF-8
Language: en
Country: null
--></g></svg>