<?xml version="1.0" encoding="UTF-8" standalone="no"?><svg xmlns="http://www.w3.org/2000/svg" xmlns:xlink="http://www.w3.org/1999/xlink" contentScriptType="application/ecmascript" contentStyleType="text/css" height="417px" preserveAspectRatio="none" style="width:533px;height:417px;" version="1.1" viewBox="0 0 533 417" width="533px" zoomAndPan="magnify"><defs><filter height="300%" id="f1a22sxm9nnqij" width="300%" x="-1" y="-1"><feGaussianBlur result="blurOut" stdDeviation="2.0"/><feColorMatrix in="blurOut" result="blurOut2" type="matrix" values="0 0 0 0 0 0 0 0 0 0 0 0 0 0 0 0 0 0 .4 0"/><feOffset dx="4.0" dy="4.0" in="blurOut2" result="blurOut3"/><feBlend in="SourceGraphic" in2="blurOut3" mode="normal"/></filter></defs><g><text fill="#888888" font-family="sans-serif" font-size="10" lengthAdjust="spacingAndGlyphs" textLength="29" x="492" y="9.2822">Fig. 4.</text><!--MD5=[9b631eb75cfa94d536624ca68efd4537]
class AbstractViewer--><rect fill="#FEFECE" filter="url(#f1a22sxm9nnqij)" height="130.7656" id="AbstractViewer" style="stroke: #A80036; stroke-width: 1.5;" width="159" x="37.5" y="19.6406"/><ellipse cx="67.35" cy="38.6094" fill="#A9DCDF" rx="11" ry="11" style="stroke: #A80036; stroke-width: 1.0;"/><path d="M67.4594,33.9531 L66.3031,39.0313 L68.6313,39.0313 L67.4594,33.9531 Z M65.975,31.7188 L68.9594,31.7188 L72.3188,44.1094 L69.8656,44.1094 L69.1,41.0469 L65.8188,41.0469 L65.0688,44.1094 L62.6312,44.1094 L65.975,31.7188 Z "/><text fill="#000000" font-family="sans-serif" font-size="12" font-style="italic" lengthAdjust="spacingAndGlyphs" textLength="60" x="101.65" y="35.7793">«viewers»</text><text fill="#000000" font-family="sans-serif" font-size="12" font-style="italic" lengthAdjust="spacingAndGlyphs" textLength="94" x="84.65" y="49.748">AbstractViewer</text><line style="stroke: #A80036; stroke-width: 1.5;" x1="38.5" x2="195.5" y1="57.5781" y2="57.5781"/><polygon fill="none" points="48.5,63.5781,52.5,67.5781,48.5,71.5781,44.5,67.5781" style="stroke: #B38D22; stroke-width: 1.0;"/><text fill="#000000" font-family="sans-serif" font-size="11" lengthAdjust="spacingAndGlyphs" textLength="133" x="57.5" y="71.7886">boolean _active = false</text><line style="stroke: #A80036; stroke-width: 1.5;" x1="38.5" x2="195.5" y1="78.3828" y2="78.3828"/><ellipse cx="48.5" cy="89.3828" fill="#84BE84" rx="3" ry="3" style="stroke: #038048; stroke-width: 1.0;"/><text fill="#000000" font-family="sans-serif" font-size="11" lengthAdjust="spacingAndGlyphs" textLength="82" x="57.5" y="92.5933">void iActivate()</text><ellipse cx="48.5" cy="102.1875" fill="#84BE84" rx="3" ry="3" style="stroke: #038048; stroke-width: 1.0;"/><text fill="#000000" font-family="sans-serif" font-size="11" lengthAdjust="spacingAndGlyphs" textLength="97" x="57.5" y="105.3979">void iDeactivate()</text><ellipse cx="48.5" cy="114.9922" fill="#84BE84" rx="3" ry="3" style="stroke: #038048; stroke-width: 1.0;"/><text fill="#000000" font-family="sans-serif" font-size="11" lengthAdjust="spacingAndGlyphs" textLength="81" x="57.5" y="118.2026">void iIsActive()</text><ellipse cx="48.5" cy="127.7969" fill="#84BE84" rx="3" ry="3" style="stroke: #038048; stroke-width: 1.0;"/><text fill="#000000" font-family="sans-serif" font-size="11" lengthAdjust="spacingAndGlyphs" textLength="79" x="57.5" y="131.0073">void iDisplay()</text><polygon fill="#FFFF44" points="48.5,135.6016,52.5,139.6016,48.5,143.6016,44.5,139.6016" style="stroke: #B38D22; stroke-width: 1.0;"/><text fill="#000000" font-family="sans-serif" font-size="11" font-style="italic" lengthAdjust="spacingAndGlyphs" textLength="68" x="57.5" y="143.812">void iDraw()</text><!--MD5=[edaff8dde2e4e225ba8d65feedee69ba]
class ViewerMgr--><rect fill="#FEFECE" filter="url(#f1a22sxm9nnqij)" height="58.7422" id="ViewerMgr" style="stroke: #A80036; stroke-width: 1.5;" width="222" x="6" y="211.6406"/><ellipse cx="80.75" cy="230.6094" fill="#ADD1B2" rx="11" ry="11" style="stroke: #A80036; stroke-width: 1.0;"/><path d="M83.7188,236.25 Q83.1406,236.5469 82.5,236.6875 Q81.8594,236.8438 81.1563,236.8438 Q78.6563,236.8438 77.3281,235.2031 Q76.0156,233.5469 76.0156,230.4219 Q76.0156,227.2969 77.3281,225.6406 Q78.6563,223.9844 81.1563,223.9844 Q81.8594,223.9844 82.5,224.1406 Q83.1563,224.2969 83.7188,224.5938 L83.7188,227.3125 Q83.0938,226.7344 82.5,226.4688 Q81.9063,226.1875 81.2813,226.1875 Q79.9375,226.1875 79.25,227.2656 Q78.5625,228.3281 78.5625,230.4219 Q78.5625,232.5156 79.25,233.5938 Q79.9375,234.6563 81.2813,234.6563 Q81.9063,234.6563 82.5,234.3906 Q83.0938,234.1094 83.7188,233.5313 L83.7188,236.25 Z "/><text fill="#000000" font-family="sans-serif" font-size="12" font-style="italic" lengthAdjust="spacingAndGlyphs" textLength="60" x="103.25" y="227.7793">«viewers»</text><text fill="#000000" font-family="sans-serif" font-size="12" lengthAdjust="spacingAndGlyphs" textLength="64" x="101.25" y="241.748">ViewerMgr</text><line style="stroke: #A80036; stroke-width: 1.5;" x1="7" x2="227" y1="249.5781" y2="249.5781"/><ellipse cx="17" cy="260.5781" fill="#84BE84" rx="3" ry="3" style="stroke: #038048; stroke-width: 1.0;"/><text fill="#000000" font-family="sans-serif" font-size="11" font-style="italic" lengthAdjust="spacingAndGlyphs" textLength="196" x="26" y="263.7886">void iAddViewer(AbstractManager)</text><!--MD5=[867ba45c4329fa30d64c66f99445c130]
class ICellFunctor--><rect fill="#FEFECE" filter="url(#f1a22sxm9nnqij)" height="58.7422" id="ICellFunctor" style="stroke: #A80036; stroke-width: 1.5;" width="138" x="314" y="347.6406"/><ellipse cx="343.4" cy="366.6094" fill="#B4A7E5" rx="11" ry="11" style="stroke: #A80036; stroke-width: 1.0;"/><path d="M339.3219,362.375 L339.3219,360.2188 L346.7125,360.2188 L346.7125,362.375 L344.2438,362.375 L344.2438,370.4531 L346.7125,370.4531 L346.7125,372.6094 L339.3219,372.6094 L339.3219,370.4531 L341.7906,370.4531 L341.7906,362.375 L339.3219,362.375 Z "/><text fill="#000000" font-family="sans-serif" font-size="12" font-style="italic" lengthAdjust="spacingAndGlyphs" textLength="36" x="379.6" y="363.7793">«env»</text><text fill="#000000" font-family="sans-serif" font-size="12" font-style="italic" lengthAdjust="spacingAndGlyphs" textLength="74" x="360.6" y="377.748">ICellFunctor</text><line style="stroke: #A80036; stroke-width: 1.5;" x1="315" x2="451" y1="385.5781" y2="385.5781"/><ellipse cx="325" cy="396.5781" fill="#84BE84" rx="3" ry="3" style="stroke: #038048; stroke-width: 1.0;"/><text fill="#000000" font-family="sans-serif" font-size="11" font-style="italic" lengthAdjust="spacingAndGlyphs" textLength="112" x="334" y="399.7886">void operator(CELL)</text><!--MD5=[ffa23b23efbb3bb6c303edb78fd66e43]
class ObstacleViewer--><rect fill="#FEFECE" filter="url(#f1a22sxm9nnqij)" height="58.7422" id="ObstacleViewer" style="stroke: #A80036; stroke-width: 1.5;" width="240" x="263" y="211.6406"/><ellipse cx="330.75" cy="230.6094" fill="#ADD1B2" rx="11" ry="11" style="stroke: #A80036; stroke-width: 1.0;"/><path d="M333.7188,236.25 Q333.1406,236.5469 332.5,236.6875 Q331.8594,236.8438 331.1563,236.8438 Q328.6563,236.8438 327.3281,235.2031 Q326.0156,233.5469 326.0156,230.4219 Q326.0156,227.2969 327.3281,225.6406 Q328.6563,223.9844 331.1563,223.9844 Q331.8594,223.9844 332.5,224.1406 Q333.1563,224.2969 333.7188,224.5938 L333.7188,227.3125 Q333.0938,226.7344 332.5,226.4688 Q331.9063,226.1875 331.2813,226.1875 Q329.9375,226.1875 329.25,227.2656 Q328.5625,228.3281 328.5625,230.4219 Q328.5625,232.5156 329.25,233.5938 Q329.9375,234.6563 331.2813,234.6563 Q331.9063,234.6563 332.5,234.3906 Q333.0938,234.1094 333.7188,233.5313 L333.7188,236.25 Z "/><text fill="#000000" font-family="sans-serif" font-size="12" font-style="italic" lengthAdjust="spacingAndGlyphs" textLength="60" x="369.25" y="227.7793">«viewers»</text><text fill="#000000" font-family="sans-serif" font-size="12" lengthAdjust="spacingAndGlyphs" textLength="96" x="351.25" y="241.748">ObstacleViewer</text><line style="stroke: #A80036; stroke-width: 1.5;" x1="264" x2="502" y1="249.5781" y2="249.5781"/><rect fill="#F24D5C" height="6" style="stroke: #C82930; stroke-width: 1.0;" width="6" x="271" y="257.5781"/><text fill="#000000" font-family="sans-serif" font-size="11" lengthAdjust="spacingAndGlyphs" textLength="214" x="283" y="263.7886">void drawObstacles(env::ICellFunctor)</text><!--MD5=[000b28d0c48dc867ea494af09a63c27a]
reverse link AbstractViewer to ViewerMgr--><path d="M104.32,171.3906 C104.54,185.7806 105.37,199.7806 106.8,211.3506 " fill="none" id="AbstractViewer&lt;-ViewerMgr" style="stroke: #A80036; stroke-width: 1.0;"/><polygon fill="none" points="97.32,170.9806,104.39,151.0006,111.32,171.0306,97.32,170.9806" style="stroke: #A80036; stroke-width: 1.0;"/><!--MD5=[3a52df45f83577b4047aa23e2a2b15eb]
link ViewerMgr to AbstractViewer--><path d="M129.0528,199.4162 C129.0528,199.4162 130.47,176.1006 130.5,164.4206 " fill="none" id="ViewerMgr-AbstractViewer" style="stroke: #A80036; stroke-width: 1.0;"/><polygon fill="#A80036" points="130.35,151.0006,126.4491,160.044,130.4049,156.0003,134.4487,159.9561,130.35,151.0006" style="stroke: #A80036; stroke-width: 1.0;"/><line style="stroke: #A80036; stroke-width: 1.0;" x1="130.4049" x2="130.49" y1="156.0003" y2="164.0006"/><polygon fill="#FFFFFF" points="127.8,211.3506,132.4045,205.801,129.0528,199.4162,124.4483,204.9658,127.8,211.3506" style="stroke: #A80036; stroke-width: 1.0;"/><!--MD5=[6827ba2616b20524c5746bf164c4eeb5]
reverse link AbstractViewer to ObstacleViewer--><path d="M214.18,142.4006 C254.81,165.9306 300.27,192.2406 333.77,211.6406 " fill="none" id="AbstractViewer&lt;-ObstacleViewer" style="stroke: #A80036; stroke-width: 1.0;"/><polygon fill="none" points="210.61,148.4206,196.81,132.3506,217.62,136.3106,210.61,148.4206" style="stroke: #A80036; stroke-width: 1.0;"/><!--MD5=[7003931370a27955c50bbeb02e0d1fb4]
link ObstacleViewer to ICellFunctor--><path d="M383,270.8906 C383,291.8206 383,320.2406 383,342.2706 " fill="none" id="ObstacleViewer-&gt;ICellFunctor" style="stroke: #A80036; stroke-width: 1.0; stroke-dasharray: 7.0,7.0;"/><polygon fill="#A80036" points="383,347.4406,387,338.4406,383,342.4406,379,338.4406,383,347.4406" style="stroke: #A80036; stroke-width: 1.0;"/><text fill="#000000" font-family="sans-serif" font-size="13" lengthAdjust="spacingAndGlyphs" textLength="28" x="384" y="313.7075">runs</text><polygon fill="#000000" points="393.5,322.7734,396.5,328.7734,399.5,322.7734,393.5,322.7734" style="stroke: #000000; stroke-width: 1.0;"/><!--MD5=[f0e9804f844269c86797a56c64e82b71]
@startuml
header Fig. 4.
abstract AbstractViewer <<viewers>>
{
	# boolean _active = false
	+ void iActivate()
	+ void iDeactivate()
	+ void iIsActive()
	+ void iDisplay()
	# void {abstract} iDraw()
}
class ViewerMgr <<viewers>> extends AbstractViewer
{
	+ {abstract} void iAddViewer(AbstractManager)
}
interface ICellFunctor <<env>> 
{
    + {abstract} void operator(CELL)
}
class ObstacleViewer <<viewers>> extends AbstractViewer
{
    - void drawObstacles(env::ICellFunctor)
}
ViewerMgr o- -> AbstractViewer
ObstacleViewer ..> ICellFunctor : runs >
hide empty members
@enduml

PlantUML version 1.2020.02(Sun Mar 01 18:22:07 CST 2020)
(GPL source distribution)
Java Runtime: OpenJDK Runtime Environment
JVM: OpenJDK 64-Bit Server VM
Java Version: 11.0.29+7
Operating System: Linux
Default Encoding: UTF-8
Language: en
Country: null
--></g></svg>