<?xml version="1.0" encoding="UTF-8" standalone="no"?><svg xmlns="http://www.w3.org/2000/svg" xmlns:xlink="http://www.w3.org/1999/xlink" contentScriptType="application/ecmascript" contentStyleType="text/css" height="289px" preserveAspectRatio="none" style="width:210px;height:289px;" version="1.1" viewBox="0 0 210 289" width="210px" zoomAndPan="magnify"><defs><filter height="300%" id="f1oal90k68uogd" width="300%" x="-1" y="-1"><feGaussianBlur result="blurOut" stdDeviation="2.0"/><feColorMatrix in="blurOut" result="blurOut2" type="matrix" values="0 0 0 0 0 0 0 0 0 0 0 0 0 0 0 0 0 0 .4 0"/><feOffset dx="4.0" dy="4.0" in="blurOut2" result="blurOut3"/><feBlend in="SourceGraphic" in2="blurOut3" mode="normal"/></filter></defs><g><text fill="#888888" font-family="sans-serif" font-size="10" lengthAdjust="spacingAndGlyphs" textLength="29" x="169" y="9.2822">Fig. 1.</text><polygon fill="#FFFFFF" filter="url(#f1oal90k68uogd)" points="6,111.6406,41,111.6406,48,133.9375,55,133.9375,55,164.2344,6,164.2344,6,111.6406" style="stroke: #000000; stroke-width: 1.5;"/><line style="stroke: #000000; stroke-width: 1.5;" x1="6" x2="48" y1="133.9375" y2="133.9375"/><text fill="#000000" font-family="sans-serif" font-size="14" font-weight="bold" lengthAdjust="spacingAndGlyphs" textLength="29" x="10" y="126.6357">env</text><polygon fill="#FFFFFF" filter="url(#f1oal90k68uogd)" points="90,111.6406,159,111.6406,166,133.9375,173,133.9375,173,164.2344,90,164.2344,90,111.6406" style="stroke: #000000; stroke-width: 1.5;"/><line style="stroke: #000000; stroke-width: 1.5;" x1="90" x2="166" y1="133.9375" y2="133.9375"/><text fill="#000000" font-family="sans-serif" font-size="14" font-weight="bold" lengthAdjust="spacingAndGlyphs" textLength="63" x="94" y="126.6357">viewers</text><polygon fill="#FFFFFF" filter="url(#f1oal90k68uogd)" points="83.5,224.6406,165.5,224.6406,172.5,246.9375,179.5,246.9375,179.5,277.2344,83.5,277.2344,83.5,224.6406" style="stroke: #000000; stroke-width: 1.5;"/><line style="stroke: #000000; stroke-width: 1.5;" x1="83.5" x2="172.5" y1="246.9375" y2="246.9375"/><text fill="#000000" font-family="sans-serif" font-size="14" font-weight="bold" lengthAdjust="spacingAndGlyphs" textLength="76" x="87.5" y="239.6357">geometry</text><!--MD5=[335f4d9be48430461c68bf6d6fdba145]
class App--><rect fill="#FEFECE" filter="url(#f1oal90k68uogd)" height="32" id="App" style="stroke: #A80036; stroke-width: 1.5;" width="56" x="52.5" y="19.6406"/><ellipse cx="67.5" cy="35.6406" fill="#ADD1B2" rx="11" ry="11" style="stroke: #A80036; stroke-width: 1.0;"/><path d="M70.4688,41.2813 Q69.8906,41.5781 69.25,41.7188 Q68.6094,41.875 67.9063,41.875 Q65.4063,41.875 64.0781,40.2344 Q62.7656,38.5781 62.7656,35.4531 Q62.7656,32.3281 64.0781,30.6719 Q65.4063,29.0156 67.9063,29.0156 Q68.6094,29.0156 69.25,29.1719 Q69.9063,29.3281 70.4688,29.625 L70.4688,32.3438 Q69.8438,31.7656 69.25,31.5 Q68.6563,31.2188 68.0313,31.2188 Q66.6875,31.2188 66,32.2969 Q65.3125,33.3594 65.3125,35.4531 Q65.3125,37.5469 66,38.625 Q66.6875,39.6875 68.0313,39.6875 Q68.6563,39.6875 69.25,39.4219 Q69.8438,39.1406 70.4688,38.5625 L70.4688,41.2813 Z "/><text fill="#000000" font-family="sans-serif" font-size="12" lengthAdjust="spacingAndGlyphs" textLength="24" x="81.5" y="39.7949">App</text><!--MD5=[9b98ac0019465168ae1183b65d705e1e]
link App to env--><path d="M72.91,51.9006 C65.65,66.4806 54.52,88.8606 45.48,107.0306 " fill="none" id="App-&gt;env" style="stroke: #A80036; stroke-width: 1.0; stroke-dasharray: 7.0,7.0;"/><polygon fill="#A80036" points="43.23,111.5506,50.8246,105.2799,45.4603,107.0756,43.6646,101.7114,43.23,111.5506" style="stroke: #A80036; stroke-width: 1.0;"/><!--MD5=[c0ccd0a15646d77be8c89c61be0cb4fb]
link App to viewers--><path d="M88.25,51.9006 C95.64,66.4806 107,88.8606 116.22,107.0306 " fill="none" id="App-&gt;viewers" style="stroke: #A80036; stroke-width: 1.0; stroke-dasharray: 7.0,7.0;"/><polygon fill="#A80036" points="118.52,111.5506,117.9974,101.7156,116.2497,107.0958,110.8696,105.3481,118.52,111.5506" style="stroke: #A80036; stroke-width: 1.0;"/><!--MD5=[68bd91ac536c46b16e04854c26c007d3]
link viewers to geometry--><path d="M131.5,164.8806 C131.5,181.1406 131.5,202.2206 131.5,219.3506 " fill="none" id="viewers-&gt;geometry" style="stroke: #A80036; stroke-width: 1.0; stroke-dasharray: 7.0,7.0;"/><polygon fill="#A80036" points="131.5,224.5306,135.5257,215.5421,131.5143,219.5306,127.5257,215.5192,131.5,224.5306" style="stroke: #A80036; stroke-width: 1.0;"/><!--MD5=[8c2755fda0423587458fedfb126abc66]
@startuml
header Fig. 1.
class App
package env {}
package viewers {}
package geometry {}

App ..> env
App ..> viewers
viewers ..> geometry

hide empty members
@enduml

PlantUML version 1.2020.02(Sun Mar 01 18:22:07 CST 2020)
(GPL source distribution)
Java Runtime: OpenJDK Runtime Environment
JVM: OpenJDK 64-Bit Server VM
Java Version: 11.0.29+7
Operating System: Linux
Default Encoding: UTF-8
Language: en
Country: null
--></g></svg>