<?xml version="1.0" encoding="UTF-8" standalone="no"?><svg xmlns="http://www.w3.org/2000/svg" xmlns:xlink="http://www.w3.org/1999/xlink" contentScriptType="application/ecmascript" contentStyleType="text/css" height="826px" preserveAspectRatio="none" style="width:289px;height:826px;" version="1.1" viewBox="0 0 289 826" width="289px" zoomAndPan="magnify"><defs><filter height="300%" id="f15xu7ev1edibg" width="300%" x="-1" y="-1"><feGaussianBlur result="blurOut" stdDeviation="2.0"/><feColorMatrix in="blurOut" result="blurOut2" type="matrix" values="0 0 0 0 0 0 0 0 0 0 0 0 0 0 0 0 0 0 .4 0"/><feOffset dx="4.0" dy="4.0" in="blurOut2" result="blurOut3"/><feBlend in="SourceGraphic" in2="blurOut3" mode="normal"/></filter></defs><g><text fill="#888888" font-family="sans-serif" font-size="10" lengthAdjust="spacingAndGlyphs" textLength="29" x="248" y="9.2822">Fig. 2.</text><!--MD5=[335f4d9be48430461c68bf6d6fdba145]
class App--><rect fill="#FEFECE" filter="url(#f15xu7ev1edibg)" height="116.8281" id="App" style="stroke: #A80036; stroke-width: 1.5;" width="191" x="33" y="19.6406"/><ellipse cx="112.25" cy="35.6406" fill="#ADD1B2" rx="11" ry="11" style="stroke: #A80036; stroke-width: 1.0;"/><path d="M115.2188,41.2813 Q114.6406,41.5781 114,41.7188 Q113.3594,41.875 112.6563,41.875 Q110.1563,41.875 108.8281,40.2344 Q107.5156,38.5781 107.5156,35.4531 Q107.5156,32.3281 108.8281,30.6719 Q110.1563,29.0156 112.6563,29.0156 Q113.3594,29.0156 114,29.1719 Q114.6563,29.3281 115.2188,29.625 L115.2188,32.3438 Q114.5938,31.7656 114,31.5 Q113.4063,31.2188 112.7813,31.2188 Q111.4375,31.2188 110.75,32.2969 Q110.0625,33.3594 110.0625,35.4531 Q110.0625,37.5469 110.75,38.625 Q111.4375,39.6875 112.7813,39.6875 Q113.4063,39.6875 114,39.4219 Q114.5938,39.1406 115.2188,38.5625 L115.2188,41.2813 Z "/><text fill="#000000" font-family="sans-serif" font-size="12" lengthAdjust="spacingAndGlyphs" textLength="24" x="132.75" y="39.7949">App</text><line style="stroke: #A80036; stroke-width: 1.5;" x1="34" x2="223" y1="51.6406" y2="51.6406"/><ellipse cx="44" cy="62.6406" fill="#84BE84" rx="3" ry="3" style="stroke: #038048; stroke-width: 1.0;"/><text fill="#000000" font-family="sans-serif" font-size="11" lengthAdjust="spacingAndGlyphs" textLength="54" x="53" y="65.8511">void run()</text><ellipse cx="44" cy="75.4453" fill="#84BE84" rx="3" ry="3" style="stroke: #038048; stroke-width: 1.0;"/><text fill="#000000" font-family="sans-serif" font-size="11" lengthAdjust="spacingAndGlyphs" textLength="75" x="53" y="78.6558">void display()</text><ellipse cx="44" cy="88.25" fill="#84BE84" rx="3" ry="3" style="stroke: #038048; stroke-width: 1.0;"/><text fill="#000000" font-family="sans-serif" font-size="11" lengthAdjust="spacingAndGlyphs" textLength="143" x="53" y="91.4604">bool addObstacle(int, int)</text><ellipse cx="44" cy="101.0547" fill="#84BE84" rx="3" ry="3" style="stroke: #038048; stroke-width: 1.0;"/><text fill="#000000" font-family="sans-serif" font-size="11" lengthAdjust="spacingAndGlyphs" textLength="165" x="53" y="104.2651">bool removeObstacle(int, int)</text><ellipse cx="44" cy="113.8594" fill="#84BE84" rx="3" ry="3" style="stroke: #038048; stroke-width: 1.0;"/><text fill="#000000" font-family="sans-serif" font-size="11" lengthAdjust="spacingAndGlyphs" textLength="151" x="53" y="117.0698">bool addPheromon(int, int)</text><ellipse cx="44" cy="126.6641" fill="#84BE84" rx="3" ry="3" style="stroke: #038048; stroke-width: 1.0;"/><text fill="#000000" font-family="sans-serif" font-size="11" lengthAdjust="spacingAndGlyphs" textLength="106" x="53" y="129.8745">void evaporate(int)</text><!--MD5=[a96d6fc3c439571aefcf3c6c47725a6e]
class CELL--><rect fill="#FEFECE" filter="url(#f15xu7ev1edibg)" height="84.3516" id="CELL" style="stroke: #A80036; stroke-width: 1.5;" width="85" x="86" y="731.6406"/><ellipse cx="110.45" cy="750.6094" fill="#ADD1B2" rx="11" ry="11" style="stroke: #A80036; stroke-width: 1.0;"/><path d="M113.4188,756.25 Q112.8406,756.5469 112.2,756.6875 Q111.5594,756.8438 110.8563,756.8438 Q108.3563,756.8438 107.0281,755.2031 Q105.7156,753.5469 105.7156,750.4219 Q105.7156,747.2969 107.0281,745.6406 Q108.3563,743.9844 110.8563,743.9844 Q111.5594,743.9844 112.2,744.1406 Q112.8563,744.2969 113.4188,744.5938 L113.4188,747.3125 Q112.7938,746.7344 112.2,746.4688 Q111.6063,746.1875 110.9813,746.1875 Q109.6375,746.1875 108.95,747.2656 Q108.2625,748.3281 108.2625,750.4219 Q108.2625,752.5156 108.95,753.5938 Q109.6375,754.6563 110.9813,754.6563 Q111.6063,754.6563 112.2,754.3906 Q112.7938,754.1094 113.4188,753.5313 L113.4188,756.25 Z "/><text fill="#000000" font-family="sans-serif" font-size="12" font-style="italic" lengthAdjust="spacingAndGlyphs" textLength="36" x="124.55" y="747.7793">«env»</text><text fill="#000000" font-family="sans-serif" font-size="12" lengthAdjust="spacingAndGlyphs" textLength="28" x="128.55" y="761.748">CELL</text><line style="stroke: #A80036; stroke-width: 1.5;" x1="87" x2="170" y1="769.5781" y2="769.5781"/><ellipse cx="97" cy="780.5781" fill="none" rx="3" ry="3" style="stroke: #038048; stroke-width: 1.0;"/><text fill="#000000" font-family="sans-serif" font-size="11" lengthAdjust="spacingAndGlyphs" textLength="28" x="106" y="783.7886">int id</text><ellipse cx="97" cy="793.3828" fill="none" rx="3" ry="3" style="stroke: #038048; stroke-width: 1.0;"/><text fill="#000000" font-family="sans-serif" font-size="11" lengthAdjust="spacingAndGlyphs" textLength="59" x="106" y="796.5933">bool mask</text><ellipse cx="97" cy="806.1875" fill="none" rx="3" ry="3" style="stroke: #038048; stroke-width: 1.0;"/><text fill="#000000" font-family="sans-serif" font-size="11" lengthAdjust="spacingAndGlyphs" textLength="47" x="106" y="809.3979">float tau</text><!--MD5=[867ba45c4329fa30d64c66f99445c130]
class ICellFunctor--><rect fill="#FEFECE" filter="url(#f15xu7ev1edibg)" height="58.7422" id="ICellFunctor" style="stroke: #A80036; stroke-width: 1.5;" width="138" x="59.5" y="612.6406"/><ellipse cx="88.9" cy="631.6094" fill="#B4A7E5" rx="11" ry="11" style="stroke: #A80036; stroke-width: 1.0;"/><path d="M84.8219,627.375 L84.8219,625.2188 L92.2125,625.2188 L92.2125,627.375 L89.7438,627.375 L89.7438,635.4531 L92.2125,635.4531 L92.2125,637.6094 L84.8219,637.6094 L84.8219,635.4531 L87.2906,635.4531 L87.2906,627.375 L84.8219,627.375 Z "/><text fill="#000000" font-family="sans-serif" font-size="12" font-style="italic" lengthAdjust="spacingAndGlyphs" textLength="36" x="125.1" y="628.7793">«env»</text><text fill="#000000" font-family="sans-serif" font-size="12" font-style="italic" lengthAdjust="spacingAndGlyphs" textLength="74" x="106.1" y="642.748">ICellFunctor</text><line style="stroke: #A80036; stroke-width: 1.5;" x1="60.5" x2="196.5" y1="650.5781" y2="650.5781"/><ellipse cx="70.5" cy="661.5781" fill="#84BE84" rx="3" ry="3" style="stroke: #038048; stroke-width: 1.0;"/><text fill="#000000" font-family="sans-serif" font-size="11" font-style="italic" lengthAdjust="spacingAndGlyphs" textLength="112" x="79.5" y="664.7886">void operator(CELL)</text><!--MD5=[d7185908a6772df83b4264cc3b1e73e4]
class IGrid--><rect fill="#FEFECE" filter="url(#f15xu7ev1edibg)" height="263.6172" id="IGrid" style="stroke: #A80036; stroke-width: 1.5;" width="245" x="6" y="196.6406"/><ellipse cx="108.25" cy="215.6094" fill="#B4A7E5" rx="11" ry="11" style="stroke: #A80036; stroke-width: 1.0;"/><path d="M104.1719,211.375 L104.1719,209.2188 L111.5625,209.2188 L111.5625,211.375 L109.0938,211.375 L109.0938,219.4531 L111.5625,219.4531 L111.5625,221.6094 L104.1719,221.6094 L104.1719,219.4531 L106.6406,219.4531 L106.6406,211.375 L104.1719,211.375 Z "/><text fill="#000000" font-family="sans-serif" font-size="12" font-style="italic" lengthAdjust="spacingAndGlyphs" textLength="36" x="126.75" y="212.7793">«env»</text><text fill="#000000" font-family="sans-serif" font-size="12" font-style="italic" lengthAdjust="spacingAndGlyphs" textLength="29" x="130.25" y="226.748">IGrid</text><line style="stroke: #A80036; stroke-width: 1.5;" x1="7" x2="250" y1="234.5781" y2="234.5781"/><ellipse cx="17" cy="245.5781" fill="#84BE84" rx="3" ry="3" style="stroke: #038048; stroke-width: 1.0;"/><text fill="#000000" font-family="sans-serif" font-size="11" font-style="italic" lengthAdjust="spacingAndGlyphs" textLength="85" x="26" y="248.7886">bool iInitialize()</text><ellipse cx="17" cy="258.3828" fill="#84BE84" rx="3" ry="3" style="stroke: #038048; stroke-width: 1.0;"/><text fill="#000000" font-family="sans-serif" font-size="11" font-style="italic" lengthAdjust="spacingAndGlyphs" textLength="80" x="26" y="261.5933">int iGetSizeX()</text><ellipse cx="17" cy="271.1875" fill="#84BE84" rx="3" ry="3" style="stroke: #038048; stroke-width: 1.0;"/><text fill="#000000" font-family="sans-serif" font-size="11" font-style="italic" lengthAdjust="spacingAndGlyphs" textLength="79" x="26" y="274.3979">int iGetSizeY()</text><ellipse cx="17" cy="283.9922" fill="#84BE84" rx="3" ry="3" style="stroke: #038048; stroke-width: 1.0;"/><text fill="#000000" font-family="sans-serif" font-size="11" font-style="italic" lengthAdjust="spacingAndGlyphs" textLength="116" x="26" y="287.2026">int iGetResolutionX()</text><ellipse cx="17" cy="296.7969" fill="#84BE84" rx="3" ry="3" style="stroke: #038048; stroke-width: 1.0;"/><text fill="#000000" font-family="sans-serif" font-size="11" font-style="italic" lengthAdjust="spacingAndGlyphs" textLength="115" x="26" y="300.0073">int iGetResolutionY()</text><ellipse cx="17" cy="309.6016" fill="#84BE84" rx="3" ry="3" style="stroke: #038048; stroke-width: 1.0;"/><text fill="#000000" font-family="sans-serif" font-size="11" font-style="italic" lengthAdjust="spacingAndGlyphs" textLength="134" x="26" y="312.812">int iGetNumberOfCells()</text><ellipse cx="17" cy="322.4063" fill="#84BE84" rx="3" ry="3" style="stroke: #038048; stroke-width: 1.0;"/><text fill="#000000" font-family="sans-serif" font-size="11" font-style="italic" lengthAdjust="spacingAndGlyphs" textLength="195" x="26" y="325.6167">bool iGetCellPosition(CELL, int, int)</text><ellipse cx="17" cy="335.2109" fill="#84BE84" rx="3" ry="3" style="stroke: #038048; stroke-width: 1.0;"/><text fill="#000000" font-family="sans-serif" font-size="11" font-style="italic" lengthAdjust="spacingAndGlyphs" textLength="219" x="26" y="338.4214">bool iGetCellCoordinates(CELL, int, int)</text><ellipse cx="17" cy="348.0156" fill="#84BE84" rx="3" ry="3" style="stroke: #038048; stroke-width: 1.0;"/><text fill="#000000" font-family="sans-serif" font-size="11" font-style="italic" lengthAdjust="spacingAndGlyphs" textLength="196" x="26" y="351.2261">bool iGetCellNumber(int, int, CELL)</text><ellipse cx="17" cy="360.8203" fill="#84BE84" rx="3" ry="3" style="stroke: #038048; stroke-width: 1.0;"/><text fill="#000000" font-family="sans-serif" font-size="11" font-style="italic" lengthAdjust="spacingAndGlyphs" textLength="215" x="26" y="364.0308">bool iGetContainingCell (int, int, CELL)</text><ellipse cx="17" cy="373.625" fill="#84BE84" rx="3" ry="3" style="stroke: #038048; stroke-width: 1.0;"/><text fill="#000000" font-family="sans-serif" font-size="11" font-style="italic" lengthAdjust="spacingAndGlyphs" textLength="175" x="26" y="376.8354">bool iIsWithinCell(int, int, CELL)</text><ellipse cx="17" cy="386.4297" fill="#84BE84" rx="3" ry="3" style="stroke: #038048; stroke-width: 1.0;"/><text fill="#000000" font-family="sans-serif" font-size="11" font-style="italic" lengthAdjust="spacingAndGlyphs" textLength="180" x="26" y="389.6401">void iApplyOnCells(ICellFunctor)</text><ellipse cx="17" cy="399.2344" fill="#84BE84" rx="3" ry="3" style="stroke: #038048; stroke-width: 1.0;"/><text fill="#000000" font-family="sans-serif" font-size="11" font-style="italic" lengthAdjust="spacingAndGlyphs" textLength="137" x="26" y="402.4448">bool iAddObstacle(CELL)</text><ellipse cx="17" cy="412.0391" fill="#84BE84" rx="3" ry="3" style="stroke: #038048; stroke-width: 1.0;"/><text fill="#000000" font-family="sans-serif" font-size="11" font-style="italic" lengthAdjust="spacingAndGlyphs" textLength="162" x="26" y="415.2495">bool iRemoveObstacle(CELL)</text><ellipse cx="17" cy="424.8438" fill="#84BE84" rx="3" ry="3" style="stroke: #038048; stroke-width: 1.0;"/><text fill="#000000" font-family="sans-serif" font-size="11" font-style="italic" lengthAdjust="spacingAndGlyphs" textLength="124" x="26" y="428.0542">bool iIsObstacle(CELL)</text><ellipse cx="17" cy="437.6484" fill="#84BE84" rx="3" ry="3" style="stroke: #038048; stroke-width: 1.0;"/><text fill="#000000" font-family="sans-serif" font-size="11" font-style="italic" lengthAdjust="spacingAndGlyphs" textLength="146" x="26" y="440.8589">bool iAddPheromon(CELL)</text><ellipse cx="17" cy="450.4531" fill="#84BE84" rx="3" ry="3" style="stroke: #038048; stroke-width: 1.0;"/><text fill="#000000" font-family="sans-serif" font-size="11" font-style="italic" lengthAdjust="spacingAndGlyphs" textLength="164" x="26" y="453.6636">void iUpdatePheromon(CELL)</text><!--MD5=[1f24f7b92150e3316908f7910ce81742]
class Grid--><rect fill="#FEFECE" filter="url(#f15xu7ev1edibg)" height="32" id="Grid" style="stroke: #A80036; stroke-width: 1.5;" width="57" x="202" y="520.6406"/><ellipse cx="217" cy="536.6406" fill="#ADD1B2" rx="11" ry="11" style="stroke: #A80036; stroke-width: 1.0;"/><path d="M219.9688,542.2813 Q219.3906,542.5781 218.75,542.7188 Q218.1094,542.875 217.4063,542.875 Q214.9063,542.875 213.5781,541.2344 Q212.2656,539.5781 212.2656,536.4531 Q212.2656,533.3281 213.5781,531.6719 Q214.9063,530.0156 217.4063,530.0156 Q218.1094,530.0156 218.75,530.1719 Q219.4063,530.3281 219.9688,530.625 L219.9688,533.3438 Q219.3438,532.7656 218.75,532.5 Q218.1563,532.2188 217.5313,532.2188 Q216.1875,532.2188 215.5,533.2969 Q214.8125,534.3594 214.8125,536.4531 Q214.8125,538.5469 215.5,539.625 Q216.1875,540.6875 217.5313,540.6875 Q218.1563,540.6875 218.75,540.4219 Q219.3438,540.1406 219.9688,539.5625 L219.9688,542.2813 Z "/><text fill="#000000" font-family="sans-serif" font-size="12" lengthAdjust="spacingAndGlyphs" textLength="25" x="231" y="540.7949">Grid</text><!--MD5=[b6573cc0df49de0d146a240b64d5a148]
reverse link IGrid to Grid--><path d="M202.36,478.8006 C210.66,495.5606 217.94,510.2706 223.02,520.5206 " fill="none" id="IGrid&lt;-Grid" style="stroke: #A80036; stroke-width: 1.0; stroke-dasharray: 7.0,7.0;"/><polygon fill="none" points="195.99,481.7206,193.39,460.6906,208.53,475.5006,195.99,481.7206" style="stroke: #A80036; stroke-width: 1.0;"/><!--MD5=[a37b14a58caa570d2aea9b4a67f87c64]
link IGrid to CELL--><path d="M58.29,460.7406 C32.99,525.2506 16.23,603.5806 41.5,671.6406 C49.96,694.4306 66.13,715.5306 82.26,732.4806 " fill="none" id="IGrid-&gt;CELL" style="stroke: #A80036; stroke-width: 1.0; stroke-dasharray: 7.0,7.0;"/><polygon fill="#A80036" points="85.91,736.2506,82.5232,727.0024,82.4319,732.6585,76.7758,732.5673,85.91,736.2506" style="stroke: #A80036; stroke-width: 1.0;"/><!--MD5=[3f36a6d216a882cfd685d3b33b9af648]
link IGrid to ICellFunctor--><path d="M128.5,460.8406 C128.5,514.5606 128.5,572.2906 128.5,607.5606 " fill="none" id="IGrid-&gt;ICellFunctor" style="stroke: #A80036; stroke-width: 1.0; stroke-dasharray: 7.0,7.0;"/><polygon fill="#A80036" points="128.5,612.6006,132.5,603.6006,128.5,607.6006,124.5,603.6006,128.5,612.6006" style="stroke: #A80036; stroke-width: 1.0;"/><!--MD5=[74ce34f444e3d62f0e356d8058a10aee]
link ICellFunctor to CELL--><path d="M128.5,671.8806 C128.5,687.8206 128.5,708.0206 128.5,726.1506 " fill="none" id="ICellFunctor-&gt;CELL" style="stroke: #A80036; stroke-width: 1.0; stroke-dasharray: 7.0,7.0;"/><polygon fill="#A80036" points="128.5,731.2006,132.5,722.2006,128.5,726.2006,124.5,722.2006,128.5,731.2006" style="stroke: #A80036; stroke-width: 1.0;"/><!--MD5=[20c651f8df7a878b02c59d8c52035585]
link Grid to CELL--><path d="M232.039,564.8437 C232.039,564.8437 230.4,637.4706 215.5,671.6406 C207.15,690.7806 193.88,708.9806 180.19,724.5206 " fill="none" id="Grid-CELL" style="stroke: #A80036; stroke-width: 1.0;"/><polygon fill="#A80036" points="171.18,734.3306,180.2131,730.4058,174.5614,730.6474,174.3198,724.9957,171.18,734.3306" style="stroke: #A80036; stroke-width: 1.0;"/><line style="stroke: #A80036; stroke-width: 1.0;" x1="174.5614" x2="179.975" y1="730.6474" y2="724.7506"/><polygon fill="#A80036" points="231.63,552.8506,227.8368,558.9835,232.039,564.8437,235.8322,558.7108,231.63,552.8506" style="stroke: #A80036; stroke-width: 1.0;"/><!--MD5=[8c48ca0678a07abf55c7a7d174685988]
link App to IGrid--><path d="M128.5,148.7806 C128.5,148.7806 128.5,171.8806 128.5,183.4406 " fill="none" id="App-IGrid" style="stroke: #A80036; stroke-width: 1.0;"/><polygon fill="#A80036" points="128.5,196.5706,132.5,187.5706,128.5,191.5706,124.5,187.5706,128.5,196.5706" style="stroke: #A80036; stroke-width: 1.0;"/><line style="stroke: #A80036; stroke-width: 1.0;" x1="128.5" x2="128.5" y1="191.5706" y2="183.5706"/><polygon fill="#FFFFFF" points="128.5,136.7806,124.5,142.7806,128.5,148.7806,132.5,142.7806,128.5,136.7806" style="stroke: #A80036; stroke-width: 1.0;"/><!--MD5=[09b163eed1b02c6e77bffe590f4253c9]
@startuml
header Fig. 2.
class App {
    + void run()
    + void display()
    + bool addObstacle(int, int)
    + bool removeObstacle(int, int)
    + bool addPheromon(int, int)
    + void evaporate(int)
}
class CELL <<env>> {
    + int id
    + bool mask
    + float tau
}
interface ICellFunctor <<env>> {
    + {abstract} void operator(CELL)
}
interface IGrid <<env>> {
	+ {abstract} bool iInitialize()
	+ {abstract} int iGetSizeX()
	+ {abstract} int iGetSizeY()
	+ {abstract} int iGetResolutionX()
	+ {abstract} int iGetResolutionY()
	+ {abstract} int iGetNumberOfCells()
	+ {abstract} bool iGetCellPosition(CELL, int, int)
	+ {abstract} bool iGetCellCoordinates(CELL, int, int)
	+ {abstract} bool iGetCellNumber(int, int, CELL)
	+ {abstract} bool iGetContainingCell (int, int, CELL)
	+ {abstract} bool iIsWithinCell(int, int, CELL)
	+ {abstract} void iApplyOnCells(ICellFunctor)
	+ {abstract} bool iAddObstacle(CELL)
	+ {abstract} bool iRemoveObstacle(CELL)
	+ {abstract} bool iIsObstacle(CELL)
    + bool {abstract} iAddPheromon(CELL)
    + void {abstract} iUpdatePheromon(CELL)
}
class Grid implements IGrid 
IGrid ..> CELL
IGrid ..> ICellFunctor
ICellFunctor ..> CELL
Grid *- - -> CELL
App o- -> IGrid
hide empty members
@enduml

PlantUML version 1.2020.02(Sun Mar 01 18:22:07 CST 2020)
(GPL source distribution)
Java Runtime: OpenJDK Runtime Environment
JVM: OpenJDK 64-Bit Server VM
Java Version: 11.0.29+7
Operating System: Linux
Default Encoding: UTF-8
Language: en
Country: null
--></g></svg>